G75*
%MOIN*%
%OFA0B0*%
%FSLAX24Y24*%
%IPPOS*%
%LPD*%
%AMOC8*
5,1,8,0,0,1.08239X$1,22.5*
%
%ADD10C,0.2049*%
%ADD11C,0.0316*%
%ADD12R,0.0395X0.1064*%
%ADD13R,0.1064X0.0395*%
%ADD14C,0.0749*%
%ADD15R,0.0634X0.0634*%
%ADD16C,0.0634*%
%ADD17R,0.0740X0.0740*%
%ADD18C,0.0740*%
D10*
X005692Y006300D03*
X013369Y002166D03*
X022424Y002166D03*
X022424Y025001D03*
X013369Y025001D03*
D11*
X011893Y021851D03*
X011893Y021556D03*
X011893Y021261D03*
X011893Y020965D03*
X011893Y020670D03*
X011893Y020375D03*
X011302Y020375D03*
X011302Y020670D03*
X011302Y020965D03*
X011302Y021261D03*
X011302Y021556D03*
X011302Y021851D03*
X011302Y004430D03*
X011302Y004135D03*
X011302Y003839D03*
X011302Y003544D03*
X011302Y003249D03*
X011302Y002954D03*
X011893Y002954D03*
X011893Y003249D03*
X011893Y003544D03*
X011893Y003839D03*
X011893Y004135D03*
X011893Y004430D03*
D12*
X002692Y002300D03*
X003192Y002300D03*
X003692Y002300D03*
X004192Y002300D03*
X004692Y002300D03*
X005192Y002300D03*
X005692Y002300D03*
X006192Y002300D03*
X006692Y002300D03*
X007192Y002300D03*
X007692Y002300D03*
X008192Y002300D03*
X008692Y002300D03*
X008692Y010300D03*
X008192Y010300D03*
X007692Y010300D03*
X007192Y010300D03*
X006692Y010300D03*
X006192Y010300D03*
X005692Y010300D03*
X005192Y010300D03*
X004692Y010300D03*
X004192Y010300D03*
X003692Y010300D03*
X003192Y010300D03*
X002692Y010300D03*
D13*
X001692Y009300D03*
X001692Y008800D03*
X001692Y008300D03*
X001692Y007800D03*
X001692Y007300D03*
X001692Y006800D03*
X001692Y006300D03*
X001692Y005800D03*
X001692Y005300D03*
X001692Y004800D03*
X001692Y004300D03*
X001692Y003800D03*
X001692Y003300D03*
X009692Y003300D03*
X009692Y003800D03*
X009692Y004300D03*
X009692Y004800D03*
X009692Y005300D03*
X009692Y005800D03*
X009692Y006300D03*
X009692Y006800D03*
X009692Y007300D03*
X009692Y007800D03*
X009692Y008300D03*
X009692Y008800D03*
X009692Y009300D03*
D14*
X010192Y010800D03*
X001192Y010800D03*
D15*
X013869Y023083D03*
D16*
X013869Y022083D03*
X013869Y021083D03*
X013869Y020083D03*
X013869Y019083D03*
X013869Y018083D03*
X013869Y017083D03*
X013869Y016083D03*
X013869Y015083D03*
X013869Y014083D03*
X013869Y013083D03*
X013869Y012083D03*
X013869Y011083D03*
X013869Y010083D03*
X013869Y009083D03*
X013869Y008083D03*
X013869Y007083D03*
X013869Y006083D03*
X013869Y005083D03*
X013869Y004083D03*
X012869Y004083D03*
X012869Y005083D03*
X012869Y006083D03*
X012869Y007083D03*
X012869Y008083D03*
X012869Y009083D03*
X012869Y010083D03*
X012869Y011083D03*
X012869Y012083D03*
X012869Y013083D03*
X012869Y014083D03*
X012869Y015083D03*
X012869Y016083D03*
X012869Y017083D03*
X012869Y018083D03*
X012869Y019083D03*
X012869Y020083D03*
X012869Y021083D03*
X012869Y022083D03*
X012869Y023083D03*
D17*
X022180Y021788D03*
X021930Y006538D03*
D18*
X021930Y005538D03*
M02*
