%
M48
M72
T01C0.0197
T02C0.0236
T03C0.0354
T04C0.0394
T05C0.0669
T06C0.1260
%
T01
X2743Y9351
X3243Y9351
X3180Y12038
X2680Y12038
X3680Y12038
X4180Y12038
X4680Y12038
X5180Y12038
X5680Y12038
X6180Y12038
X8680Y12163
X8680Y11788
X3868Y15976
X3493Y15538
X3055Y15163
X2680Y14788
X8805Y19351
X8805Y19788
X14555Y25663
X15305Y21351
X18305Y19476
X18305Y19069
X18305Y18663
X18993Y17851
X20774Y17632
X21743Y17538
X21743Y17101
X21805Y16257
X18930Y14351
X17305Y15038
X15930Y15101
X15430Y16163
X14805Y16351
X14680Y15788
X16493Y17663
X15555Y13663
X14555Y12663
X15930Y11726
X16180Y10538
X16930Y9913
X16930Y8663
X17305Y8288
X17805Y8601
X18305Y9476
X19118Y10538
X19748Y9294
X17930Y11476
X17305Y11288
X15618Y9038
X18305Y6913
X21180Y1476
X14680Y1476
X19961Y21726
X19743Y22476
X21118Y25663
T02
X11893Y21851
X11893Y21556
X11893Y21261
X11893Y20965
X11893Y20670
X11893Y20375
X11302Y20375
X11302Y20670
X11302Y20965
X11302Y21261
X11302Y21556
X11302Y21851
X11302Y4430
X11302Y4135
X11302Y3839
X11302Y3544
X11302Y3249
X11302Y2954
X11893Y2954
X11893Y3249
X11893Y3544
X11893Y3839
X11893Y4135
X11893Y4430
T03
X12869Y4083
X12869Y5083
X13869Y5083
X13869Y4083
X13869Y6083
X12869Y6083
X12869Y7083
X13869Y7083
X13869Y8083
X13869Y9083
X12869Y9083
X12869Y8083
X12869Y10083
X13869Y10083
X13869Y11083
X13869Y12083
X12869Y12083
X12869Y11083
X12869Y13083
X13869Y13083
X13869Y14083
X12869Y14083
X12869Y15083
X12869Y16083
X13869Y16083
X13869Y15083
X13869Y17083
X12869Y17083
X12869Y18083
X12869Y19083
X13869Y19083
X13869Y18083
X13869Y20083
X12869Y20083
X12869Y21083
X13869Y21083
X13869Y22083
X13869Y23083
X12869Y23083
X12869Y22083
X21930Y6538
X21930Y5538
T04
X22180Y21788
T05
X10192Y10800
X1192Y10800
T06
X13369Y2166
X22424Y2166
X22424Y25001
X13369Y25001
M30
