G75*
%MOIN*%
%OFA0B0*%
%FSLAX24Y24*%
%IPPOS*%
%LPD*%
%AMOC8*
5,1,8,0,0,1.08239X$1,22.5*
%
%ADD10C,0.2049*%
%ADD11C,0.0316*%
%ADD12R,0.0480X0.0640*%
%ADD13R,0.0634X0.0634*%
%ADD14C,0.0634*%
%ADD15R,0.0640X0.0480*%
%ADD16R,0.0631X0.0316*%
%ADD17R,0.0592X0.0237*%
%ADD18R,0.0740X0.0740*%
%ADD19C,0.0740*%
%ADD20R,0.0316X0.1143*%
%ADD21R,0.0907X0.1182*%
%ADD22R,0.1143X0.0316*%
%ADD23R,0.1182X0.0907*%
D10*
X005692Y006300D03*
X013369Y002166D03*
X022424Y002166D03*
X022424Y025001D03*
X013369Y025001D03*
D11*
X011893Y021851D03*
X011893Y021556D03*
X011893Y021261D03*
X011893Y020965D03*
X011893Y020670D03*
X011893Y020375D03*
X011302Y020375D03*
X011302Y020670D03*
X011302Y020965D03*
X011302Y021261D03*
X011302Y021556D03*
X011302Y021851D03*
X011302Y004430D03*
X011302Y004135D03*
X011302Y003839D03*
X011302Y003544D03*
X011302Y003249D03*
X011302Y002954D03*
X011893Y002954D03*
X011893Y003249D03*
X011893Y003544D03*
X011893Y003839D03*
X011893Y004135D03*
X011893Y004430D03*
D12*
X017305Y007538D03*
X018055Y007538D03*
X018055Y010538D03*
X017305Y010538D03*
X017305Y014288D03*
X018055Y014288D03*
D13*
X013869Y023083D03*
D14*
X013869Y022083D03*
X013869Y021083D03*
X013869Y020083D03*
X013869Y019083D03*
X013869Y018083D03*
X013869Y017083D03*
X013869Y016083D03*
X013869Y015083D03*
X013869Y014083D03*
X013869Y013083D03*
X013869Y012083D03*
X013869Y011083D03*
X013869Y010083D03*
X013869Y009083D03*
X013869Y008083D03*
X013869Y007083D03*
X013869Y006083D03*
X013869Y005083D03*
X013869Y004083D03*
X012869Y004083D03*
X012869Y005083D03*
X012869Y006083D03*
X012869Y007083D03*
X012869Y008083D03*
X012869Y009083D03*
X012869Y010083D03*
X012869Y011083D03*
X012869Y012083D03*
X012869Y013083D03*
X012869Y014083D03*
X012869Y015083D03*
X012869Y016083D03*
X012869Y017083D03*
X012869Y018083D03*
X012869Y019083D03*
X012869Y020083D03*
X012869Y021083D03*
X012869Y022083D03*
X012869Y023083D03*
D15*
X015868Y022476D03*
X015868Y021726D03*
X015118Y019288D03*
X015118Y018538D03*
X019118Y021726D03*
X019118Y022476D03*
D16*
X017965Y022476D03*
X017965Y021726D03*
X017020Y021727D03*
X017020Y022102D03*
X017020Y022475D03*
D17*
X016525Y017324D03*
X016525Y017068D03*
X016525Y016812D03*
X016525Y016556D03*
X016525Y016300D03*
X016525Y016044D03*
X016525Y015788D03*
X016525Y015532D03*
X016525Y015276D03*
X016525Y015020D03*
X016525Y013574D03*
X016525Y013318D03*
X016525Y013062D03*
X016525Y012806D03*
X016525Y012550D03*
X016525Y012294D03*
X016525Y012038D03*
X016525Y011782D03*
X016525Y011526D03*
X016525Y011270D03*
X016400Y009806D03*
X016400Y009550D03*
X016400Y009294D03*
X016400Y009038D03*
X016400Y008782D03*
X016400Y008526D03*
X016400Y008270D03*
X018960Y008270D03*
X018960Y008526D03*
X018960Y008782D03*
X018960Y009038D03*
X018960Y009294D03*
X018960Y009550D03*
X018960Y009806D03*
X019085Y011270D03*
X019085Y011526D03*
X019085Y011782D03*
X019085Y012038D03*
X019085Y012294D03*
X019085Y012550D03*
X019085Y012806D03*
X019085Y013062D03*
X019085Y013318D03*
X019085Y013574D03*
X019085Y015020D03*
X019085Y015276D03*
X019085Y015532D03*
X019085Y015788D03*
X019085Y016044D03*
X019085Y016300D03*
X019085Y016556D03*
X019085Y016812D03*
X019085Y017068D03*
X019085Y017324D03*
D18*
X022180Y021788D03*
X021930Y006538D03*
D19*
X021930Y005538D03*
D20*
X008582Y020968D03*
X008188Y020968D03*
X007795Y020968D03*
X007401Y020968D03*
X007007Y020968D03*
X006614Y020968D03*
X006220Y020968D03*
X005826Y020968D03*
X005432Y020968D03*
X005039Y020968D03*
X004645Y020968D03*
X004251Y020968D03*
X003858Y020968D03*
X003464Y020968D03*
X003070Y020968D03*
X002677Y020968D03*
D21*
X001436Y021736D03*
X009822Y021736D03*
D22*
X020805Y018116D03*
X020805Y017722D03*
X020805Y017329D03*
X020805Y016935D03*
X020805Y016541D03*
X020805Y016147D03*
X020805Y015754D03*
X020805Y015360D03*
X020805Y014966D03*
X020805Y014573D03*
X020805Y014179D03*
X020805Y013785D03*
X020805Y013392D03*
X020805Y012998D03*
X020805Y012604D03*
X020805Y012210D03*
D23*
X021573Y010970D03*
X021573Y019356D03*
M02*
