G75*
%MOIN*%
%OFA0B0*%
%FSLAX24Y24*%
%IPPOS*%
%LPD*%
%AMOC8*
5,1,8,0,0,1.08239X$1,22.5*
%
%ADD10R,0.0315X0.0984*%
%ADD11R,0.0984X0.0315*%
%ADD12R,0.0554X0.0554*%
%ADD13C,0.0554*%
%ADD14C,0.1969*%
%ADD15R,0.0660X0.0660*%
%ADD16C,0.0660*%
%ADD17C,0.0357*%
%ADD18C,0.0100*%
%ADD19C,0.0160*%
%ADD20C,0.0240*%
D10*
X002692Y002300D03*
X003192Y002300D03*
X003692Y002300D03*
X004192Y002300D03*
X004692Y002300D03*
X005192Y002300D03*
X005692Y002300D03*
X006192Y002300D03*
X006692Y002300D03*
X007192Y002300D03*
X007692Y002300D03*
X008192Y002300D03*
X008692Y002300D03*
X008692Y010300D03*
X008192Y010300D03*
X007692Y010300D03*
X007192Y010300D03*
X006692Y010300D03*
X006192Y010300D03*
X005692Y010300D03*
X005192Y010300D03*
X004692Y010300D03*
X004192Y010300D03*
X003692Y010300D03*
X003192Y010300D03*
X002692Y010300D03*
D11*
X001692Y009300D03*
X001692Y008800D03*
X001692Y008300D03*
X001692Y007800D03*
X001692Y007300D03*
X001692Y006800D03*
X001692Y006300D03*
X001692Y005800D03*
X001692Y005300D03*
X001692Y004800D03*
X001692Y004300D03*
X001692Y003800D03*
X001692Y003300D03*
X009692Y003300D03*
X009692Y003800D03*
X009692Y004300D03*
X009692Y004800D03*
X009692Y005300D03*
X009692Y005800D03*
X009692Y006300D03*
X009692Y006800D03*
X009692Y007300D03*
X009692Y007800D03*
X009692Y008300D03*
X009692Y008800D03*
X009692Y009300D03*
D12*
X013869Y023083D03*
D13*
X013869Y022083D03*
X013869Y021083D03*
X013869Y020083D03*
X013869Y019083D03*
X013869Y018083D03*
X013869Y017083D03*
X013869Y016083D03*
X013869Y015083D03*
X013869Y014083D03*
X013869Y013083D03*
X013869Y012083D03*
X013869Y011083D03*
X013869Y010083D03*
X013869Y009083D03*
X013869Y008083D03*
X013869Y007083D03*
X013869Y006083D03*
X013869Y005083D03*
X013869Y004083D03*
X012869Y004083D03*
X012869Y005083D03*
X012869Y006083D03*
X012869Y007083D03*
X012869Y008083D03*
X012869Y009083D03*
X012869Y010083D03*
X012869Y011083D03*
X012869Y012083D03*
X012869Y013083D03*
X012869Y014083D03*
X012869Y015083D03*
X012869Y016083D03*
X012869Y017083D03*
X012869Y018083D03*
X012869Y019083D03*
X012869Y020083D03*
X012869Y021083D03*
X012869Y022083D03*
X012869Y023083D03*
D14*
X013369Y025001D03*
X022424Y025001D03*
X022424Y002166D03*
X013369Y002166D03*
D15*
X021930Y006538D03*
X022180Y021788D03*
D16*
X021930Y005538D03*
D17*
X019748Y009294D03*
X019118Y010538D03*
X018305Y009476D03*
X017805Y008601D03*
X017305Y008288D03*
X016930Y008663D03*
X016930Y009913D03*
X016180Y010538D03*
X015930Y011726D03*
X017305Y011288D03*
X017930Y011476D03*
X015618Y009038D03*
X018305Y006913D03*
X021180Y001476D03*
X014680Y001476D03*
X007805Y008288D03*
X007368Y008788D03*
X006180Y012038D03*
X005680Y012038D03*
X005180Y012038D03*
X004680Y012038D03*
X004180Y012038D03*
X003680Y012038D03*
X003180Y012038D03*
X002680Y012038D03*
X002680Y014788D03*
X003055Y015163D03*
X003493Y015538D03*
X003868Y015976D03*
X008680Y012163D03*
X014555Y012663D03*
X015555Y013663D03*
X015930Y015101D03*
X015430Y016163D03*
X014805Y016351D03*
X014680Y015788D03*
X016493Y017663D03*
X018305Y018663D03*
X018493Y017351D03*
X017305Y015038D03*
X018930Y014351D03*
X021743Y017351D03*
X021743Y018226D03*
X019743Y022476D03*
X021118Y025663D03*
X014555Y025663D03*
X008805Y019788D03*
D18*
X007868Y015976D02*
X008192Y015651D01*
X008192Y010300D01*
X007692Y010300D02*
X007692Y015276D01*
X007430Y015538D01*
X003493Y015538D01*
X003868Y015976D02*
X007868Y015976D01*
X006805Y015163D02*
X007192Y014776D01*
X007192Y010300D01*
X006692Y010300D02*
X006692Y014589D01*
X006493Y014788D01*
X002680Y014788D01*
X003055Y015163D02*
X006805Y015163D01*
X006180Y012038D02*
X006192Y012026D01*
X006192Y010300D01*
X005692Y010300D02*
X005692Y012026D01*
X005680Y012038D01*
X005192Y012026D02*
X005180Y012038D01*
X005192Y012026D02*
X005192Y010300D01*
X004692Y010300D02*
X004692Y012026D01*
X004680Y012038D01*
X004192Y012026D02*
X004180Y012038D01*
X004192Y012026D02*
X004192Y010300D01*
X003692Y010300D02*
X003692Y012026D01*
X003680Y012038D01*
X003192Y012026D02*
X003180Y012038D01*
X003192Y012026D02*
X003192Y010300D01*
X002692Y010300D02*
X002692Y012026D01*
X002680Y012038D01*
X001692Y008800D02*
X001696Y008788D01*
X007368Y008788D01*
X007805Y008288D02*
X002805Y008288D01*
X002618Y008101D01*
X002618Y007538D01*
X002379Y007300D01*
X001692Y007300D01*
X012869Y011083D02*
X012869Y011102D01*
X013368Y011601D01*
X014680Y011601D01*
X014868Y011788D01*
X014868Y015601D01*
X014680Y015788D01*
X015055Y016101D02*
X014805Y016351D01*
X015055Y016101D02*
X015055Y009226D01*
X014913Y009083D01*
X013869Y009083D01*
X013869Y008083D02*
X015038Y008083D01*
X015243Y008288D01*
X015243Y015976D01*
X015430Y016163D01*
X015805Y015663D02*
X015805Y017163D01*
X015993Y017351D01*
X016368Y017351D01*
X016493Y017476D01*
X016493Y017663D01*
X016805Y018101D02*
X016930Y017976D01*
X016930Y009913D01*
X016930Y008663D01*
X017805Y008601D02*
X017805Y011351D01*
X017930Y011476D01*
X018305Y009476D02*
X018305Y006913D01*
X019748Y009294D02*
X019748Y017232D01*
X019868Y017351D01*
X021743Y017351D01*
X021743Y018226D02*
X018618Y018226D01*
X018493Y018101D01*
X018493Y017351D01*
X016805Y018101D02*
X013887Y018101D01*
X013869Y018083D01*
X015805Y015663D02*
X015555Y015413D01*
X015555Y013663D01*
X015555Y009101D01*
X015618Y009038D01*
X015930Y011726D02*
X015930Y015101D01*
X014555Y013913D02*
X014385Y014083D01*
X013869Y014083D01*
X014555Y013913D02*
X014555Y012663D01*
D19*
X000710Y023487D02*
X000710Y001318D01*
X010530Y001318D01*
X010530Y023487D01*
X000710Y023487D01*
X000710Y023454D02*
X010530Y023454D01*
X010530Y023295D02*
X000710Y023295D01*
X000710Y023137D02*
X010530Y023137D01*
X010530Y022978D02*
X000710Y022978D01*
X000710Y022820D02*
X010530Y022820D01*
X010530Y022661D02*
X000710Y022661D01*
X000710Y022503D02*
X010530Y022503D01*
X010530Y022344D02*
X000710Y022344D01*
X000710Y022186D02*
X010530Y022186D01*
X010530Y022027D02*
X000710Y022027D01*
X000710Y021869D02*
X010530Y021869D01*
X010530Y021710D02*
X000710Y021710D01*
X000710Y021552D02*
X010530Y021552D01*
X010530Y021393D02*
X000710Y021393D01*
X000710Y021235D02*
X010530Y021235D01*
X010530Y021076D02*
X000710Y021076D01*
X000710Y020918D02*
X010530Y020918D01*
X010530Y020759D02*
X000710Y020759D01*
X000710Y020601D02*
X010530Y020601D01*
X010530Y020442D02*
X000710Y020442D01*
X000710Y020284D02*
X010530Y020284D01*
X010530Y020125D02*
X000710Y020125D01*
X000710Y019967D02*
X010530Y019967D01*
X010530Y019808D02*
X000710Y019808D01*
X000710Y019650D02*
X010530Y019650D01*
X010530Y019491D02*
X000710Y019491D01*
X000710Y019333D02*
X010530Y019333D01*
X010530Y019174D02*
X000710Y019174D01*
X000710Y019016D02*
X010530Y019016D01*
X010530Y018857D02*
X000710Y018857D01*
X000710Y018699D02*
X010530Y018699D01*
X010530Y018540D02*
X000710Y018540D01*
X000710Y018382D02*
X010530Y018382D01*
X010530Y018223D02*
X000710Y018223D01*
X000710Y018065D02*
X010530Y018065D01*
X010530Y017906D02*
X000710Y017906D01*
X000710Y017748D02*
X010530Y017748D01*
X010530Y017589D02*
X000710Y017589D01*
X000710Y017431D02*
X010530Y017431D01*
X010530Y017272D02*
X000710Y017272D01*
X000710Y017114D02*
X010530Y017114D01*
X010530Y016955D02*
X000710Y016955D01*
X000710Y016797D02*
X010530Y016797D01*
X010530Y016638D02*
X000710Y016638D01*
X000710Y016480D02*
X010530Y016480D01*
X010530Y016321D02*
X004170Y016321D01*
X004186Y016306D02*
X004127Y016364D01*
X003959Y016434D01*
X003776Y016434D01*
X003608Y016364D01*
X003479Y016235D01*
X003409Y016067D01*
X003409Y015997D01*
X003401Y015997D01*
X003233Y015927D01*
X003104Y015798D01*
X003034Y015629D01*
X003034Y015622D01*
X002964Y015622D01*
X002795Y015552D01*
X002666Y015423D01*
X002597Y015254D01*
X002597Y015247D01*
X002589Y015247D01*
X002420Y015177D01*
X002291Y015048D01*
X002222Y014879D01*
X002222Y014697D01*
X002291Y014529D01*
X002420Y014400D01*
X002589Y014330D01*
X002771Y014330D01*
X002940Y014400D01*
X002998Y014458D01*
X006356Y014458D01*
X006362Y014452D01*
X006362Y012459D01*
X006271Y012497D01*
X006089Y012497D01*
X005930Y012431D01*
X005771Y012497D01*
X005589Y012497D01*
X005430Y012431D01*
X005271Y012497D01*
X005089Y012497D01*
X004930Y012431D01*
X004771Y012497D01*
X004589Y012497D01*
X004430Y012431D01*
X004271Y012497D01*
X004089Y012497D01*
X003930Y012431D01*
X003771Y012497D01*
X003589Y012497D01*
X003430Y012431D01*
X003271Y012497D01*
X003089Y012497D01*
X002930Y012431D01*
X002771Y012497D01*
X002589Y012497D01*
X002420Y012427D01*
X002291Y012298D01*
X002222Y012129D01*
X002222Y011947D01*
X002291Y011779D01*
X002362Y011708D01*
X002362Y011016D01*
X002297Y010951D01*
X002254Y010848D01*
X002254Y009752D01*
X002265Y009727D01*
X002240Y009737D01*
X001144Y009737D01*
X001041Y009695D01*
X000962Y009616D01*
X000920Y009513D01*
X000920Y009087D01*
X000935Y009050D01*
X000920Y009013D01*
X000920Y008587D01*
X000935Y008550D01*
X000920Y008513D01*
X000920Y008087D01*
X000935Y008050D01*
X000920Y008013D01*
X000920Y007587D01*
X000935Y007550D01*
X000920Y007513D01*
X000920Y007087D01*
X000935Y007050D01*
X000920Y007013D01*
X000920Y006587D01*
X000962Y006484D01*
X001020Y006427D01*
X001020Y006300D01*
X001020Y006173D01*
X000962Y006116D01*
X000920Y006013D01*
X000920Y005587D01*
X000935Y005550D01*
X000920Y005513D01*
X000920Y005087D01*
X000935Y005050D01*
X000920Y005013D01*
X000920Y004587D01*
X000935Y004550D01*
X000920Y004513D01*
X000920Y004087D01*
X000935Y004050D01*
X000920Y004013D01*
X000920Y003587D01*
X000935Y003550D01*
X000920Y003513D01*
X000920Y003087D01*
X000962Y002984D01*
X001041Y002905D01*
X001144Y002863D01*
X002240Y002863D01*
X002265Y002873D01*
X002254Y002848D01*
X002254Y001752D01*
X002297Y001649D01*
X002376Y001571D01*
X002479Y001528D01*
X002905Y001528D01*
X002942Y001543D01*
X002979Y001528D01*
X003405Y001528D01*
X003442Y001543D01*
X003479Y001528D01*
X003905Y001528D01*
X003942Y001543D01*
X003979Y001528D01*
X004405Y001528D01*
X004442Y001543D01*
X004479Y001528D01*
X004905Y001528D01*
X004942Y001543D01*
X004979Y001528D01*
X005405Y001528D01*
X005442Y001543D01*
X005479Y001528D01*
X005905Y001528D01*
X005942Y001543D01*
X005979Y001528D01*
X006405Y001528D01*
X006442Y001543D01*
X006479Y001528D01*
X006905Y001528D01*
X006942Y001543D01*
X006979Y001528D01*
X007405Y001528D01*
X007442Y001543D01*
X007479Y001528D01*
X007905Y001528D01*
X007942Y001543D01*
X007979Y001528D01*
X008405Y001528D01*
X008442Y001543D01*
X008479Y001528D01*
X008905Y001528D01*
X009008Y001571D01*
X009087Y001649D01*
X009129Y001752D01*
X009129Y002848D01*
X009119Y002873D01*
X009144Y002863D01*
X010240Y002863D01*
X010343Y002905D01*
X010421Y002984D01*
X010464Y003087D01*
X010464Y003513D01*
X010449Y003550D01*
X010464Y003587D01*
X010464Y004013D01*
X010449Y004050D01*
X010464Y004087D01*
X010464Y004513D01*
X010449Y004550D01*
X010464Y004587D01*
X010464Y005013D01*
X010449Y005050D01*
X010464Y005087D01*
X010464Y005513D01*
X010449Y005550D01*
X010464Y005587D01*
X010464Y006013D01*
X010449Y006050D01*
X010464Y006087D01*
X010464Y006513D01*
X010449Y006550D01*
X010464Y006587D01*
X010464Y007013D01*
X010449Y007050D01*
X010464Y007087D01*
X010464Y007513D01*
X010449Y007550D01*
X010464Y007587D01*
X010464Y008013D01*
X010449Y008050D01*
X010464Y008087D01*
X010464Y008513D01*
X010449Y008550D01*
X010464Y008587D01*
X010464Y009013D01*
X010449Y009050D01*
X010464Y009087D01*
X010464Y009513D01*
X010421Y009616D01*
X010343Y009695D01*
X010240Y009737D01*
X009144Y009737D01*
X009119Y009727D01*
X009129Y009752D01*
X009129Y010848D01*
X009092Y010938D01*
X009092Y011959D01*
X009138Y012072D01*
X009138Y012254D01*
X009069Y012423D01*
X008940Y012552D01*
X008771Y012622D01*
X008589Y012622D01*
X008522Y012594D01*
X008522Y015717D01*
X008472Y015838D01*
X008379Y015931D01*
X008054Y016255D01*
X007933Y016306D01*
X004186Y016306D01*
X003565Y016321D02*
X000710Y016321D01*
X000710Y016163D02*
X003449Y016163D01*
X003409Y016004D02*
X000710Y016004D01*
X000710Y015846D02*
X003152Y015846D01*
X003058Y015687D02*
X000710Y015687D01*
X000710Y015529D02*
X002772Y015529D01*
X002645Y015370D02*
X000710Y015370D01*
X000710Y015212D02*
X002505Y015212D01*
X002297Y015053D02*
X000710Y015053D01*
X000710Y014895D02*
X002228Y014895D01*
X002222Y014736D02*
X000710Y014736D01*
X000710Y014578D02*
X002271Y014578D01*
X002401Y014419D02*
X000710Y014419D01*
X000710Y014261D02*
X006362Y014261D01*
X006362Y014419D02*
X002959Y014419D01*
X002352Y012359D02*
X000710Y012359D01*
X000710Y012517D02*
X006362Y012517D01*
X006362Y012676D02*
X000710Y012676D01*
X000710Y012834D02*
X006362Y012834D01*
X006362Y012993D02*
X000710Y012993D01*
X000710Y013151D02*
X006362Y013151D01*
X006362Y013310D02*
X000710Y013310D01*
X000710Y013468D02*
X006362Y013468D01*
X006362Y013627D02*
X000710Y013627D01*
X000710Y013785D02*
X006362Y013785D01*
X006362Y013944D02*
X000710Y013944D01*
X000710Y014102D02*
X006362Y014102D01*
X008306Y016004D02*
X010530Y016004D01*
X010530Y015846D02*
X008464Y015846D01*
X008522Y015687D02*
X010530Y015687D01*
X010530Y015529D02*
X008522Y015529D01*
X008522Y015370D02*
X010530Y015370D01*
X010530Y015212D02*
X008522Y015212D01*
X008522Y015053D02*
X010530Y015053D01*
X010530Y014895D02*
X008522Y014895D01*
X008522Y014736D02*
X010530Y014736D01*
X010530Y014578D02*
X008522Y014578D01*
X008522Y014419D02*
X010530Y014419D01*
X010530Y014261D02*
X008522Y014261D01*
X008522Y014102D02*
X010530Y014102D01*
X010530Y013944D02*
X008522Y013944D01*
X008522Y013785D02*
X010530Y013785D01*
X010530Y013627D02*
X008522Y013627D01*
X008522Y013468D02*
X010530Y013468D01*
X010530Y013310D02*
X008522Y013310D01*
X008522Y013151D02*
X010530Y013151D01*
X010530Y012993D02*
X008522Y012993D01*
X008522Y012834D02*
X010530Y012834D01*
X010530Y012676D02*
X008522Y012676D01*
X008974Y012517D02*
X010530Y012517D01*
X010530Y012359D02*
X009095Y012359D01*
X009138Y012200D02*
X010530Y012200D01*
X010530Y012042D02*
X009126Y012042D01*
X009092Y011883D02*
X010530Y011883D01*
X010530Y011725D02*
X009092Y011725D01*
X009092Y011566D02*
X010530Y011566D01*
X010530Y011408D02*
X009092Y011408D01*
X009092Y011249D02*
X010530Y011249D01*
X010530Y011091D02*
X009092Y011091D01*
X009094Y010932D02*
X010530Y010932D01*
X010530Y010774D02*
X009129Y010774D01*
X009129Y010615D02*
X010530Y010615D01*
X010530Y010457D02*
X009129Y010457D01*
X009129Y010298D02*
X010530Y010298D01*
X010530Y010140D02*
X009129Y010140D01*
X009129Y009981D02*
X010530Y009981D01*
X010530Y009823D02*
X009129Y009823D01*
X008930Y009538D02*
X008920Y009513D01*
X008920Y009087D01*
X008935Y009050D01*
X008920Y009013D01*
X008920Y008587D01*
X008935Y008550D01*
X008920Y008513D01*
X008920Y008087D01*
X008935Y008050D01*
X008920Y008013D01*
X008920Y007587D01*
X008935Y007550D01*
X008920Y007513D01*
X008920Y007087D01*
X008935Y007050D01*
X008920Y007013D01*
X008920Y006587D01*
X008935Y006550D01*
X008920Y006513D01*
X008920Y006087D01*
X008935Y006050D01*
X008920Y006013D01*
X008920Y005587D01*
X008935Y005550D01*
X008920Y005513D01*
X008920Y005087D01*
X008935Y005050D01*
X008920Y005013D01*
X008920Y004587D01*
X008935Y004550D01*
X008920Y004513D01*
X008920Y004087D01*
X008935Y004050D01*
X008920Y004013D01*
X008920Y003587D01*
X008935Y003550D01*
X008920Y003513D01*
X008920Y003087D01*
X008930Y003062D01*
X008905Y003072D01*
X008479Y003072D01*
X008442Y003057D01*
X008405Y003072D01*
X007979Y003072D01*
X007942Y003057D01*
X007905Y003072D01*
X007479Y003072D01*
X007442Y003057D01*
X007405Y003072D01*
X006979Y003072D01*
X006942Y003057D01*
X006905Y003072D01*
X006479Y003072D01*
X006442Y003057D01*
X006405Y003072D01*
X005979Y003072D01*
X005942Y003057D01*
X005905Y003072D01*
X005479Y003072D01*
X005442Y003057D01*
X005405Y003072D01*
X004979Y003072D01*
X004942Y003057D01*
X004905Y003072D01*
X004479Y003072D01*
X004442Y003057D01*
X004405Y003072D01*
X003979Y003072D01*
X003942Y003057D01*
X003905Y003072D01*
X003479Y003072D01*
X003442Y003057D01*
X003405Y003072D01*
X002979Y003072D01*
X002942Y003057D01*
X002905Y003072D01*
X002479Y003072D01*
X002454Y003062D01*
X002464Y003087D01*
X002464Y003513D01*
X002449Y003550D01*
X002464Y003587D01*
X002464Y004013D01*
X002449Y004050D01*
X002464Y004087D01*
X002464Y004513D01*
X002449Y004550D01*
X002464Y004587D01*
X002464Y005013D01*
X002449Y005050D01*
X002464Y005087D01*
X002464Y005513D01*
X002449Y005550D01*
X002464Y005587D01*
X002464Y006013D01*
X002421Y006116D01*
X002364Y006173D01*
X002364Y006300D01*
X002364Y006427D01*
X002421Y006484D01*
X002464Y006587D01*
X002464Y006978D01*
X002566Y007020D01*
X002897Y007351D01*
X002947Y007473D01*
X002947Y007958D01*
X007487Y007958D01*
X007545Y007900D01*
X007714Y007830D01*
X007896Y007830D01*
X008065Y007900D01*
X008194Y008029D01*
X008263Y008197D01*
X008263Y008379D01*
X008194Y008548D01*
X008065Y008677D01*
X007896Y008747D01*
X007826Y008747D01*
X007826Y008879D01*
X007756Y009048D01*
X007627Y009177D01*
X007459Y009247D01*
X007276Y009247D01*
X007108Y009177D01*
X007049Y009118D01*
X002464Y009118D01*
X002464Y009513D01*
X002454Y009538D01*
X002479Y009528D01*
X002905Y009528D01*
X002942Y009543D01*
X002979Y009528D01*
X003405Y009528D01*
X003442Y009543D01*
X003479Y009528D01*
X003905Y009528D01*
X003942Y009543D01*
X003979Y009528D01*
X004405Y009528D01*
X004442Y009543D01*
X004479Y009528D01*
X004905Y009528D01*
X004942Y009543D01*
X004979Y009528D01*
X005405Y009528D01*
X005442Y009543D01*
X005479Y009528D01*
X005905Y009528D01*
X005942Y009543D01*
X005979Y009528D01*
X006405Y009528D01*
X006442Y009543D01*
X006479Y009528D01*
X006905Y009528D01*
X006942Y009543D01*
X006979Y009528D01*
X007405Y009528D01*
X007442Y009543D01*
X007479Y009528D01*
X007905Y009528D01*
X007942Y009543D01*
X007979Y009528D01*
X008405Y009528D01*
X008442Y009543D01*
X008479Y009528D01*
X008905Y009528D01*
X008930Y009538D01*
X008920Y009506D02*
X002464Y009506D01*
X002464Y009347D02*
X008920Y009347D01*
X008920Y009189D02*
X007598Y009189D01*
X007763Y009030D02*
X008927Y009030D01*
X008920Y008872D02*
X007826Y008872D01*
X007977Y008713D02*
X008920Y008713D01*
X008933Y008555D02*
X008187Y008555D01*
X008256Y008396D02*
X008920Y008396D01*
X008920Y008238D02*
X008263Y008238D01*
X008215Y008079D02*
X008923Y008079D01*
X008920Y007921D02*
X008086Y007921D01*
X007524Y007921D02*
X002947Y007921D01*
X002947Y007762D02*
X005491Y007762D01*
X005499Y007764D02*
X005127Y007664D01*
X004793Y007472D01*
X004520Y007199D01*
X004327Y006865D01*
X004228Y006493D01*
X004228Y006107D01*
X004327Y005735D01*
X004520Y005401D01*
X004793Y005128D01*
X005127Y004936D01*
X005499Y004836D01*
X005885Y004836D01*
X006257Y004936D01*
X006591Y005128D01*
X006864Y005401D01*
X007056Y005735D01*
X007156Y006107D01*
X007156Y006493D01*
X007056Y006865D01*
X006864Y007199D01*
X006591Y007472D01*
X006257Y007664D01*
X005885Y007764D01*
X005499Y007764D01*
X005892Y007762D02*
X008920Y007762D01*
X008920Y007604D02*
X006362Y007604D01*
X006617Y007445D02*
X008920Y007445D01*
X008920Y007287D02*
X006776Y007287D01*
X006904Y007128D02*
X008920Y007128D01*
X008920Y006970D02*
X006996Y006970D01*
X007071Y006811D02*
X008920Y006811D01*
X008920Y006653D02*
X007113Y006653D01*
X007156Y006494D02*
X008920Y006494D01*
X008920Y006336D02*
X007156Y006336D01*
X007156Y006177D02*
X008920Y006177D01*
X008922Y006019D02*
X007132Y006019D01*
X007090Y005860D02*
X008920Y005860D01*
X008920Y005702D02*
X007037Y005702D01*
X006946Y005543D02*
X008932Y005543D01*
X008920Y005385D02*
X006847Y005385D01*
X006689Y005226D02*
X008920Y005226D01*
X008928Y005068D02*
X006486Y005068D01*
X006159Y004909D02*
X008920Y004909D01*
X008920Y004751D02*
X002464Y004751D01*
X002464Y004909D02*
X005225Y004909D01*
X004898Y005068D02*
X002456Y005068D01*
X002464Y005226D02*
X004695Y005226D01*
X004536Y005385D02*
X002464Y005385D01*
X002452Y005543D02*
X004438Y005543D01*
X004346Y005702D02*
X002464Y005702D01*
X002464Y005860D02*
X004294Y005860D01*
X004251Y006019D02*
X002462Y006019D01*
X002364Y006177D02*
X004228Y006177D01*
X004228Y006336D02*
X002364Y006336D01*
X002364Y006300D02*
X001692Y006300D01*
X001692Y006300D01*
X002364Y006300D01*
X002426Y006494D02*
X004228Y006494D01*
X004270Y006653D02*
X002464Y006653D01*
X002464Y006811D02*
X004313Y006811D01*
X004388Y006970D02*
X002464Y006970D01*
X002674Y007128D02*
X004479Y007128D01*
X004608Y007287D02*
X002833Y007287D01*
X002936Y007445D02*
X004766Y007445D01*
X005021Y007604D02*
X002947Y007604D01*
X001692Y006300D02*
X001692Y006300D01*
X001020Y006300D01*
X001692Y006300D01*
X001020Y006336D02*
X000710Y006336D01*
X000710Y006494D02*
X000958Y006494D01*
X000920Y006653D02*
X000710Y006653D01*
X000710Y006811D02*
X000920Y006811D01*
X000920Y006970D02*
X000710Y006970D01*
X000710Y007128D02*
X000920Y007128D01*
X000920Y007287D02*
X000710Y007287D01*
X000710Y007445D02*
X000920Y007445D01*
X000920Y007604D02*
X000710Y007604D01*
X000710Y007762D02*
X000920Y007762D01*
X000920Y007921D02*
X000710Y007921D01*
X000710Y008079D02*
X000923Y008079D01*
X000920Y008238D02*
X000710Y008238D01*
X000710Y008396D02*
X000920Y008396D01*
X000933Y008555D02*
X000710Y008555D01*
X000710Y008713D02*
X000920Y008713D01*
X000920Y008872D02*
X000710Y008872D01*
X000710Y009030D02*
X000927Y009030D01*
X000920Y009189D02*
X000710Y009189D01*
X000710Y009347D02*
X000920Y009347D01*
X000920Y009506D02*
X000710Y009506D01*
X000710Y009664D02*
X001010Y009664D01*
X000710Y009823D02*
X002254Y009823D01*
X002254Y009981D02*
X000710Y009981D01*
X000710Y010140D02*
X002254Y010140D01*
X002254Y010298D02*
X000710Y010298D01*
X000710Y010457D02*
X002254Y010457D01*
X002254Y010615D02*
X000710Y010615D01*
X000710Y010774D02*
X002254Y010774D01*
X002289Y010932D02*
X000710Y010932D01*
X000710Y011091D02*
X002362Y011091D01*
X002362Y011249D02*
X000710Y011249D01*
X000710Y011408D02*
X002362Y011408D01*
X002362Y011566D02*
X000710Y011566D01*
X000710Y011725D02*
X002345Y011725D01*
X002248Y011883D02*
X000710Y011883D01*
X000710Y012042D02*
X002222Y012042D01*
X002251Y012200D02*
X000710Y012200D01*
X002464Y009189D02*
X007137Y009189D01*
X010373Y009664D02*
X010530Y009664D01*
X010530Y009506D02*
X010464Y009506D01*
X010464Y009347D02*
X010530Y009347D01*
X010530Y009189D02*
X010464Y009189D01*
X010457Y009030D02*
X010530Y009030D01*
X010530Y008872D02*
X010464Y008872D01*
X010464Y008713D02*
X010530Y008713D01*
X010530Y008555D02*
X010451Y008555D01*
X010464Y008396D02*
X010530Y008396D01*
X010530Y008238D02*
X010464Y008238D01*
X010461Y008079D02*
X010530Y008079D01*
X010530Y007921D02*
X010464Y007921D01*
X010464Y007762D02*
X010530Y007762D01*
X010530Y007604D02*
X010464Y007604D01*
X010464Y007445D02*
X010530Y007445D01*
X010530Y007287D02*
X010464Y007287D01*
X010464Y007128D02*
X010530Y007128D01*
X010530Y006970D02*
X010464Y006970D01*
X010464Y006811D02*
X010530Y006811D01*
X010530Y006653D02*
X010464Y006653D01*
X010464Y006494D02*
X010530Y006494D01*
X010530Y006336D02*
X010464Y006336D01*
X010464Y006177D02*
X010530Y006177D01*
X010530Y006019D02*
X010462Y006019D01*
X010464Y005860D02*
X010530Y005860D01*
X010530Y005702D02*
X010464Y005702D01*
X010452Y005543D02*
X010530Y005543D01*
X010530Y005385D02*
X010464Y005385D01*
X010464Y005226D02*
X010530Y005226D01*
X010530Y005068D02*
X010456Y005068D01*
X010464Y004909D02*
X010530Y004909D01*
X010530Y004751D02*
X010464Y004751D01*
X010464Y004592D02*
X010530Y004592D01*
X010530Y004434D02*
X010464Y004434D01*
X010464Y004275D02*
X010530Y004275D01*
X010530Y004117D02*
X010464Y004117D01*
X010464Y003958D02*
X010530Y003958D01*
X010530Y003800D02*
X010464Y003800D01*
X010464Y003641D02*
X010530Y003641D01*
X010530Y003483D02*
X010464Y003483D01*
X010464Y003324D02*
X010530Y003324D01*
X010530Y003166D02*
X010464Y003166D01*
X010431Y003007D02*
X010530Y003007D01*
X010530Y002849D02*
X009129Y002849D01*
X009129Y002690D02*
X010530Y002690D01*
X010530Y002532D02*
X009129Y002532D01*
X009129Y002373D02*
X010530Y002373D01*
X010530Y002215D02*
X009129Y002215D01*
X009129Y002056D02*
X010530Y002056D01*
X010530Y001898D02*
X009129Y001898D01*
X009124Y001739D02*
X010530Y001739D01*
X010530Y001581D02*
X009018Y001581D01*
X010530Y001422D02*
X000710Y001422D01*
X000710Y001581D02*
X002366Y001581D01*
X002260Y001739D02*
X000710Y001739D01*
X000710Y001898D02*
X002254Y001898D01*
X002254Y002056D02*
X000710Y002056D01*
X000710Y002215D02*
X002254Y002215D01*
X002254Y002373D02*
X000710Y002373D01*
X000710Y002532D02*
X002254Y002532D01*
X002254Y002690D02*
X000710Y002690D01*
X000710Y002849D02*
X002255Y002849D01*
X002464Y003166D02*
X008920Y003166D01*
X008920Y003324D02*
X002464Y003324D01*
X002464Y003483D02*
X008920Y003483D01*
X008920Y003641D02*
X002464Y003641D01*
X002464Y003800D02*
X008920Y003800D01*
X008920Y003958D02*
X002464Y003958D01*
X002464Y004117D02*
X008920Y004117D01*
X008920Y004275D02*
X002464Y004275D01*
X002464Y004434D02*
X008920Y004434D01*
X008920Y004592D02*
X002464Y004592D01*
X001020Y006177D02*
X000710Y006177D01*
X000710Y006019D02*
X000922Y006019D01*
X000920Y005860D02*
X000710Y005860D01*
X000710Y005702D02*
X000920Y005702D01*
X000932Y005543D02*
X000710Y005543D01*
X000710Y005385D02*
X000920Y005385D01*
X000920Y005226D02*
X000710Y005226D01*
X000710Y005068D02*
X000928Y005068D01*
X000920Y004909D02*
X000710Y004909D01*
X000710Y004751D02*
X000920Y004751D01*
X000920Y004592D02*
X000710Y004592D01*
X000710Y004434D02*
X000920Y004434D01*
X000920Y004275D02*
X000710Y004275D01*
X000710Y004117D02*
X000920Y004117D01*
X000920Y003958D02*
X000710Y003958D01*
X000710Y003800D02*
X000920Y003800D01*
X000920Y003641D02*
X000710Y003641D01*
X000710Y003483D02*
X000920Y003483D01*
X000920Y003324D02*
X000710Y003324D01*
X000710Y003166D02*
X000920Y003166D01*
X000953Y003007D02*
X000710Y003007D01*
X008147Y016163D02*
X010530Y016163D01*
X012585Y016474D02*
X012585Y016725D01*
X012630Y016692D01*
X012694Y016660D01*
X012762Y016637D01*
X012833Y016626D01*
X012861Y016626D01*
X012861Y017075D01*
X012878Y017075D01*
X012878Y017092D01*
X013326Y017092D01*
X013326Y017119D01*
X013315Y017190D01*
X013293Y017259D01*
X013260Y017323D01*
X013218Y017381D01*
X013167Y017432D01*
X013109Y017474D01*
X013045Y017507D01*
X012976Y017529D01*
X012905Y017540D01*
X012878Y017540D01*
X012878Y017092D01*
X012861Y017092D01*
X012861Y017540D01*
X012833Y017540D01*
X012762Y017529D01*
X012694Y017507D01*
X012630Y017474D01*
X012585Y017442D01*
X012585Y017693D01*
X012599Y017679D01*
X012774Y017606D01*
X012964Y017606D01*
X013140Y017679D01*
X013274Y017813D01*
X013346Y017988D01*
X013346Y018178D01*
X013274Y018354D01*
X013140Y018488D01*
X012964Y018560D01*
X012774Y018560D01*
X012599Y018488D01*
X012585Y018474D01*
X012585Y018693D01*
X012599Y018679D01*
X012774Y018606D01*
X012964Y018606D01*
X013140Y018679D01*
X013274Y018813D01*
X013346Y018988D01*
X013346Y019178D01*
X013274Y019354D01*
X013140Y019488D01*
X012964Y019560D01*
X012774Y019560D01*
X012599Y019488D01*
X012585Y019474D01*
X012585Y019693D01*
X012599Y019679D01*
X012774Y019606D01*
X012964Y019606D01*
X013140Y019679D01*
X013274Y019813D01*
X013346Y019988D01*
X013346Y020178D01*
X013274Y020354D01*
X013140Y020488D01*
X012964Y020560D01*
X012774Y020560D01*
X012599Y020488D01*
X012585Y020474D01*
X012585Y020725D01*
X012630Y020692D01*
X012694Y020660D01*
X012762Y020637D01*
X012833Y020626D01*
X012861Y020626D01*
X012861Y021075D01*
X012878Y021075D01*
X012878Y021092D01*
X013326Y021092D01*
X013326Y021119D01*
X013315Y021190D01*
X013293Y021259D01*
X013260Y021323D01*
X013218Y021381D01*
X013167Y021432D01*
X013109Y021474D01*
X013045Y021507D01*
X012976Y021529D01*
X012905Y021540D01*
X012878Y021540D01*
X012878Y021092D01*
X012861Y021092D01*
X012861Y021540D01*
X012833Y021540D01*
X012762Y021529D01*
X012694Y021507D01*
X012630Y021474D01*
X012585Y021442D01*
X012585Y021693D01*
X012599Y021679D01*
X012774Y021606D01*
X012964Y021606D01*
X013140Y021679D01*
X013274Y021813D01*
X013346Y021988D01*
X013346Y022178D01*
X013274Y022354D01*
X013140Y022488D01*
X012964Y022560D01*
X012774Y022560D01*
X012599Y022488D01*
X012585Y022474D01*
X012585Y022693D01*
X012599Y022679D01*
X012774Y022606D01*
X012964Y022606D01*
X013140Y022679D01*
X013274Y022813D01*
X013346Y022988D01*
X013346Y023178D01*
X013274Y023354D01*
X013140Y023488D01*
X012964Y023560D01*
X012774Y023560D01*
X012599Y023488D01*
X012585Y023474D01*
X012585Y024139D01*
X012592Y024131D01*
X012694Y024050D01*
X012805Y023980D01*
X012923Y023923D01*
X013046Y023880D01*
X013174Y023851D01*
X013289Y023838D01*
X013289Y024921D01*
X013449Y024921D01*
X013449Y025081D01*
X014532Y025081D01*
X014519Y025196D01*
X014490Y025323D01*
X014447Y025447D01*
X014390Y025565D01*
X014320Y025675D01*
X014239Y025778D01*
X014168Y025849D01*
X021626Y025849D01*
X021555Y025778D01*
X021473Y025675D01*
X021404Y025565D01*
X021347Y025447D01*
X021304Y025323D01*
X021275Y025196D01*
X021262Y025081D01*
X022344Y025081D01*
X022344Y024921D01*
X021262Y024921D01*
X021275Y024805D01*
X021304Y024678D01*
X021347Y024554D01*
X021404Y024437D01*
X021473Y024326D01*
X021555Y024224D01*
X021647Y024131D01*
X021750Y024050D01*
X021860Y023980D01*
X021978Y023923D01*
X022102Y023880D01*
X022229Y023851D01*
X022344Y023838D01*
X022344Y024921D01*
X022504Y024921D01*
X022504Y023838D01*
X022620Y023851D01*
X022747Y023880D01*
X022871Y023923D01*
X022988Y023980D01*
X023099Y024050D01*
X023201Y024131D01*
X023272Y024202D01*
X023272Y002965D01*
X023201Y003035D01*
X023099Y003117D01*
X022988Y003187D01*
X022871Y003243D01*
X022747Y003287D01*
X022620Y003316D01*
X022504Y003329D01*
X022504Y002246D01*
X022344Y002246D01*
X022344Y002086D01*
X021262Y002086D01*
X021275Y001971D01*
X021304Y001843D01*
X021347Y001720D01*
X021404Y001602D01*
X021473Y001491D01*
X021555Y001389D01*
X021626Y001318D01*
X014168Y001318D01*
X014239Y001389D01*
X014320Y001491D01*
X014390Y001602D01*
X014447Y001720D01*
X014490Y001843D01*
X014519Y001971D01*
X014532Y002086D01*
X013449Y002086D01*
X013449Y002246D01*
X013289Y002246D01*
X013289Y003329D01*
X013174Y003316D01*
X013046Y003287D01*
X012923Y003243D01*
X012805Y003187D01*
X012694Y003117D01*
X012592Y003035D01*
X012585Y003028D01*
X012585Y003693D01*
X012599Y003679D01*
X012774Y003606D01*
X012964Y003606D01*
X013140Y003679D01*
X013274Y003813D01*
X013346Y003988D01*
X013346Y004178D01*
X013274Y004354D01*
X013140Y004488D01*
X012964Y004560D01*
X012774Y004560D01*
X012599Y004488D01*
X012585Y004474D01*
X012585Y004693D01*
X012599Y004679D01*
X012774Y004606D01*
X012964Y004606D01*
X013140Y004679D01*
X013274Y004813D01*
X013346Y004988D01*
X013346Y005178D01*
X013274Y005354D01*
X013140Y005488D01*
X012964Y005560D01*
X012774Y005560D01*
X012599Y005488D01*
X012585Y005474D01*
X012585Y005693D01*
X012599Y005679D01*
X012774Y005606D01*
X012964Y005606D01*
X013140Y005679D01*
X013274Y005813D01*
X013346Y005988D01*
X013346Y006178D01*
X013274Y006354D01*
X013140Y006488D01*
X012964Y006560D01*
X012774Y006560D01*
X012599Y006488D01*
X012585Y006474D01*
X012585Y006725D01*
X012630Y006692D01*
X012694Y006660D01*
X012762Y006637D01*
X012833Y006626D01*
X012861Y006626D01*
X012861Y007075D01*
X012878Y007075D01*
X012878Y007092D01*
X013326Y007092D01*
X013326Y007119D01*
X013315Y007190D01*
X013293Y007259D01*
X013260Y007323D01*
X013218Y007381D01*
X013167Y007432D01*
X013109Y007474D01*
X013045Y007507D01*
X012976Y007529D01*
X012905Y007540D01*
X012878Y007540D01*
X012878Y007092D01*
X012861Y007092D01*
X012861Y007540D01*
X012833Y007540D01*
X012762Y007529D01*
X012694Y007507D01*
X012630Y007474D01*
X012585Y007442D01*
X012585Y007693D01*
X012599Y007679D01*
X012774Y007606D01*
X012964Y007606D01*
X013140Y007679D01*
X013274Y007813D01*
X013346Y007988D01*
X013346Y008178D01*
X013274Y008354D01*
X013140Y008488D01*
X012964Y008560D01*
X012774Y008560D01*
X012599Y008488D01*
X012585Y008474D01*
X012585Y008725D01*
X012630Y008692D01*
X012694Y008660D01*
X012762Y008637D01*
X012833Y008626D01*
X012861Y008626D01*
X012861Y009075D01*
X012878Y009075D01*
X012878Y009092D01*
X013326Y009092D01*
X013326Y009119D01*
X013315Y009190D01*
X013293Y009259D01*
X013260Y009323D01*
X013218Y009381D01*
X013167Y009432D01*
X013109Y009474D01*
X013045Y009507D01*
X012976Y009529D01*
X012905Y009540D01*
X012878Y009540D01*
X012878Y009092D01*
X012861Y009092D01*
X012861Y009540D01*
X012833Y009540D01*
X012762Y009529D01*
X012694Y009507D01*
X012630Y009474D01*
X012585Y009442D01*
X012585Y009693D01*
X012599Y009679D01*
X012774Y009606D01*
X012964Y009606D01*
X013140Y009679D01*
X013274Y009813D01*
X013346Y009988D01*
X013346Y010178D01*
X013274Y010354D01*
X013140Y010488D01*
X012964Y010560D01*
X012774Y010560D01*
X012599Y010488D01*
X012585Y010474D01*
X012585Y010693D01*
X012599Y010679D01*
X012774Y010606D01*
X012964Y010606D01*
X013140Y010679D01*
X013274Y010813D01*
X013346Y010988D01*
X013346Y011178D01*
X013332Y011212D01*
X013471Y011351D01*
X013498Y011351D01*
X013478Y011323D01*
X013446Y011259D01*
X013423Y011190D01*
X013412Y011119D01*
X013412Y011092D01*
X013861Y011092D01*
X013861Y011075D01*
X013878Y011075D01*
X013878Y011092D01*
X014326Y011092D01*
X014326Y011119D01*
X014315Y011190D01*
X014293Y011259D01*
X014260Y011323D01*
X014240Y011351D01*
X014730Y011351D01*
X014805Y011382D01*
X014805Y009333D01*
X014282Y009333D01*
X014274Y009354D01*
X014140Y009488D01*
X013964Y009560D01*
X013774Y009560D01*
X013599Y009488D01*
X013465Y009354D01*
X013392Y009178D01*
X013392Y008988D01*
X013465Y008813D01*
X013599Y008679D01*
X013774Y008606D01*
X013964Y008606D01*
X014140Y008679D01*
X014274Y008813D01*
X014282Y008833D01*
X014962Y008833D01*
X014993Y008846D01*
X014993Y008392D01*
X014934Y008333D01*
X014282Y008333D01*
X014274Y008354D01*
X014140Y008488D01*
X013964Y008560D01*
X013774Y008560D01*
X013599Y008488D01*
X013465Y008354D01*
X013392Y008178D01*
X013392Y007988D01*
X013465Y007813D01*
X013599Y007679D01*
X013774Y007606D01*
X013964Y007606D01*
X014140Y007679D01*
X014274Y007813D01*
X014282Y007833D01*
X015087Y007833D01*
X015179Y007871D01*
X015384Y008076D01*
X015454Y008147D01*
X015492Y008238D01*
X016927Y008238D01*
X016927Y008213D02*
X016984Y008074D01*
X017091Y007967D01*
X017230Y007910D01*
X017380Y007910D01*
X017519Y007967D01*
X017626Y008074D01*
X017683Y008213D01*
X017683Y008241D01*
X017730Y008222D01*
X017880Y008222D01*
X018019Y008280D01*
X018055Y008316D01*
X018055Y007198D01*
X017984Y007128D01*
X017927Y006988D01*
X017927Y006838D01*
X017984Y006699D01*
X018091Y006592D01*
X018230Y006535D01*
X018380Y006535D01*
X018519Y006592D01*
X018626Y006699D01*
X018683Y006838D01*
X018683Y006988D01*
X018626Y007128D01*
X018555Y007198D01*
X018555Y009191D01*
X018626Y009261D01*
X018683Y009400D01*
X018683Y009551D01*
X018626Y009690D01*
X018519Y009797D01*
X018380Y009854D01*
X018230Y009854D01*
X018091Y009797D01*
X018055Y009761D01*
X018055Y011118D01*
X018144Y011155D01*
X018251Y011261D01*
X018308Y011400D01*
X018308Y011551D01*
X018251Y011690D01*
X018144Y011797D01*
X018005Y011854D01*
X017855Y011854D01*
X017716Y011797D01*
X017625Y011706D01*
X017625Y014823D01*
X017626Y014824D01*
X017683Y014963D01*
X017683Y015113D01*
X017626Y015253D01*
X017625Y015253D01*
X017625Y022093D01*
X017688Y022156D01*
X019527Y022156D01*
X019528Y022155D01*
X019667Y022097D01*
X019818Y022097D01*
X019957Y022155D01*
X020063Y022261D01*
X020121Y022400D01*
X020121Y022551D01*
X020063Y022690D01*
X019957Y022797D01*
X019818Y022854D01*
X019667Y022854D01*
X019528Y022797D01*
X019527Y022796D01*
X017491Y022796D01*
X017374Y022747D01*
X017124Y022497D01*
X017034Y022407D01*
X016985Y022289D01*
X016985Y018274D01*
X016947Y018313D01*
X016855Y018351D01*
X014275Y018351D01*
X014274Y018354D01*
X014140Y018488D01*
X013964Y018560D01*
X013774Y018560D01*
X013599Y018488D01*
X013465Y018354D01*
X013392Y018178D01*
X013392Y017988D01*
X013465Y017813D01*
X013599Y017679D01*
X013774Y017606D01*
X013964Y017606D01*
X014140Y017679D01*
X014274Y017813D01*
X014289Y017851D01*
X016161Y017851D01*
X016114Y017738D01*
X016114Y017601D01*
X015943Y017601D01*
X015851Y017563D01*
X015593Y017305D01*
X015555Y017213D01*
X015555Y016521D01*
X015505Y016542D01*
X015355Y016542D01*
X015216Y016484D01*
X015176Y016444D01*
X015126Y016565D01*
X015019Y016672D01*
X014880Y016729D01*
X014730Y016729D01*
X014591Y016672D01*
X014484Y016565D01*
X014427Y016426D01*
X014427Y016275D01*
X014484Y016136D01*
X014498Y016122D01*
X014466Y016109D01*
X014359Y016003D01*
X014302Y015863D01*
X014302Y015713D01*
X014359Y015574D01*
X014466Y015467D01*
X014605Y015410D01*
X014618Y015410D01*
X014618Y014204D01*
X014597Y014225D01*
X014526Y014295D01*
X014435Y014333D01*
X014282Y014333D01*
X014274Y014354D01*
X014140Y014488D01*
X013964Y014560D01*
X013774Y014560D01*
X013599Y014488D01*
X013465Y014354D01*
X013392Y014178D01*
X013392Y013988D01*
X013465Y013813D01*
X013599Y013679D01*
X013774Y013606D01*
X013964Y013606D01*
X014140Y013679D01*
X014274Y013813D01*
X014282Y013833D01*
X014305Y013810D01*
X014305Y013278D01*
X014274Y013354D01*
X014140Y013488D01*
X013964Y013560D01*
X013774Y013560D01*
X013599Y013488D01*
X013465Y013354D01*
X013392Y013178D01*
X013392Y012988D01*
X013465Y012813D01*
X013599Y012679D01*
X013774Y012606D01*
X013964Y012606D01*
X014140Y012679D01*
X014177Y012716D01*
X014177Y012588D01*
X014234Y012449D01*
X014341Y012342D01*
X014480Y012285D01*
X014618Y012285D01*
X014618Y011892D01*
X014576Y011851D01*
X014289Y011851D01*
X014346Y011988D01*
X014346Y012178D01*
X014274Y012354D01*
X014140Y012488D01*
X013964Y012560D01*
X013774Y012560D01*
X013599Y012488D01*
X013465Y012354D01*
X013392Y012178D01*
X013392Y011988D01*
X013449Y011851D01*
X013318Y011851D01*
X013284Y011836D01*
X013346Y011988D01*
X013346Y012178D01*
X013274Y012354D01*
X013140Y012488D01*
X012964Y012560D01*
X012774Y012560D01*
X012599Y012488D01*
X012585Y012474D01*
X012585Y012693D01*
X012599Y012679D01*
X012774Y012606D01*
X012964Y012606D01*
X013140Y012679D01*
X013274Y012813D01*
X013346Y012988D01*
X013346Y013178D01*
X013274Y013354D01*
X013140Y013488D01*
X012964Y013560D01*
X012774Y013560D01*
X012599Y013488D01*
X012585Y013474D01*
X012585Y013725D01*
X012630Y013692D01*
X012694Y013660D01*
X012762Y013637D01*
X012833Y013626D01*
X012861Y013626D01*
X012861Y014075D01*
X012878Y014075D01*
X012878Y014092D01*
X013326Y014092D01*
X013326Y014119D01*
X013315Y014190D01*
X013293Y014259D01*
X013260Y014323D01*
X013218Y014381D01*
X013167Y014432D01*
X013109Y014474D01*
X013045Y014507D01*
X012976Y014529D01*
X012905Y014540D01*
X012878Y014540D01*
X012878Y014092D01*
X012861Y014092D01*
X012861Y014540D01*
X012833Y014540D01*
X012762Y014529D01*
X012694Y014507D01*
X012630Y014474D01*
X012585Y014442D01*
X012585Y014693D01*
X012599Y014679D01*
X012774Y014606D01*
X012964Y014606D01*
X013140Y014679D01*
X013274Y014813D01*
X013346Y014988D01*
X013346Y015178D01*
X013274Y015354D01*
X013140Y015488D01*
X012964Y015560D01*
X012774Y015560D01*
X012599Y015488D01*
X012585Y015474D01*
X012585Y015693D01*
X012599Y015679D01*
X012774Y015606D01*
X012964Y015606D01*
X013140Y015679D01*
X013274Y015813D01*
X013346Y015988D01*
X013346Y016178D01*
X013274Y016354D01*
X013140Y016488D01*
X012964Y016560D01*
X012774Y016560D01*
X012599Y016488D01*
X012585Y016474D01*
X012585Y016480D02*
X012591Y016480D01*
X012585Y016638D02*
X012760Y016638D01*
X012861Y016638D02*
X012878Y016638D01*
X012878Y016626D02*
X012905Y016626D01*
X012976Y016637D01*
X013045Y016660D01*
X013109Y016692D01*
X013167Y016735D01*
X013218Y016785D01*
X013260Y016844D01*
X013293Y016908D01*
X013315Y016976D01*
X013326Y017047D01*
X013326Y017075D01*
X012878Y017075D01*
X012878Y016626D01*
X012979Y016638D02*
X013697Y016638D01*
X013774Y016606D02*
X013964Y016606D01*
X014140Y016679D01*
X014274Y016813D01*
X014346Y016988D01*
X014346Y017178D01*
X014274Y017354D01*
X014140Y017488D01*
X013964Y017560D01*
X013774Y017560D01*
X013599Y017488D01*
X013465Y017354D01*
X013392Y017178D01*
X013392Y016988D01*
X013465Y016813D01*
X013599Y016679D01*
X013774Y016606D01*
X013774Y016560D02*
X013599Y016488D01*
X013465Y016354D01*
X013392Y016178D01*
X013392Y015988D01*
X013465Y015813D01*
X013599Y015679D01*
X013774Y015606D01*
X013964Y015606D01*
X014140Y015679D01*
X014274Y015813D01*
X014346Y015988D01*
X014346Y016178D01*
X014274Y016354D01*
X014140Y016488D01*
X013964Y016560D01*
X013774Y016560D01*
X013591Y016480D02*
X013148Y016480D01*
X013287Y016321D02*
X013451Y016321D01*
X013392Y016163D02*
X013346Y016163D01*
X013346Y016004D02*
X013392Y016004D01*
X013451Y015846D02*
X013287Y015846D01*
X013148Y015687D02*
X013591Y015687D01*
X013698Y015529D02*
X013041Y015529D01*
X013257Y015370D02*
X013481Y015370D01*
X013465Y015354D02*
X013392Y015178D01*
X013392Y014988D01*
X013465Y014813D01*
X013599Y014679D01*
X013774Y014606D01*
X013964Y014606D01*
X014140Y014679D01*
X014274Y014813D01*
X014346Y014988D01*
X014346Y015178D01*
X014274Y015354D01*
X014140Y015488D01*
X013964Y015560D01*
X013774Y015560D01*
X013599Y015488D01*
X013465Y015354D01*
X013406Y015212D02*
X013333Y015212D01*
X013346Y015053D02*
X013392Y015053D01*
X013431Y014895D02*
X013308Y014895D01*
X013197Y014736D02*
X013542Y014736D01*
X013530Y014419D02*
X013180Y014419D01*
X013292Y014261D02*
X013426Y014261D01*
X013392Y014102D02*
X013326Y014102D01*
X013326Y014075D02*
X012878Y014075D01*
X012878Y013626D01*
X012905Y013626D01*
X012976Y013637D01*
X013045Y013660D01*
X013109Y013692D01*
X013167Y013735D01*
X013218Y013785D01*
X013493Y013785D01*
X013411Y013944D02*
X013305Y013944D01*
X013315Y013976D02*
X013326Y014047D01*
X013326Y014075D01*
X013315Y013976D02*
X013293Y013908D01*
X013260Y013844D01*
X013218Y013785D01*
X013159Y013468D02*
X013579Y013468D01*
X013447Y013310D02*
X013292Y013310D01*
X013346Y013151D02*
X013392Y013151D01*
X013392Y012993D02*
X013346Y012993D01*
X013283Y012834D02*
X013456Y012834D01*
X013606Y012676D02*
X013132Y012676D01*
X013069Y012517D02*
X013670Y012517D01*
X013470Y012359D02*
X013269Y012359D01*
X013337Y012200D02*
X013401Y012200D01*
X013392Y012042D02*
X013346Y012042D01*
X013303Y011883D02*
X013436Y011883D01*
X014069Y012517D02*
X014206Y012517D01*
X014177Y012676D02*
X014132Y012676D01*
X014269Y012359D02*
X014324Y012359D01*
X014337Y012200D02*
X014618Y012200D01*
X014618Y012042D02*
X014346Y012042D01*
X014303Y011883D02*
X014609Y011883D01*
X014805Y011249D02*
X014296Y011249D01*
X014326Y011075D02*
X013878Y011075D01*
X013878Y010626D01*
X013905Y010626D01*
X013976Y010637D01*
X014045Y010660D01*
X014109Y010692D01*
X014167Y010735D01*
X014218Y010785D01*
X014260Y010844D01*
X014293Y010908D01*
X014315Y010976D01*
X014326Y011047D01*
X014326Y011075D01*
X014301Y010932D02*
X014805Y010932D01*
X014805Y010774D02*
X014206Y010774D01*
X014140Y010488D02*
X013964Y010560D01*
X013774Y010560D01*
X013599Y010488D01*
X013465Y010354D01*
X013392Y010178D01*
X013392Y009988D01*
X013465Y009813D01*
X013599Y009679D01*
X013774Y009606D01*
X013964Y009606D01*
X014140Y009679D01*
X014274Y009813D01*
X014346Y009988D01*
X014346Y010178D01*
X014274Y010354D01*
X014140Y010488D01*
X014171Y010457D02*
X014805Y010457D01*
X014805Y010615D02*
X012986Y010615D01*
X012753Y010615D02*
X012585Y010615D01*
X013171Y010457D02*
X013568Y010457D01*
X013442Y010298D02*
X013297Y010298D01*
X013346Y010140D02*
X013392Y010140D01*
X013395Y009981D02*
X013343Y009981D01*
X013278Y009823D02*
X013461Y009823D01*
X013634Y009664D02*
X013104Y009664D01*
X013047Y009506D02*
X013642Y009506D01*
X013462Y009347D02*
X013243Y009347D01*
X013315Y009189D02*
X013396Y009189D01*
X013326Y009075D02*
X012878Y009075D01*
X012878Y008626D01*
X012905Y008626D01*
X012976Y008637D01*
X013045Y008660D01*
X013109Y008692D01*
X013167Y008735D01*
X013218Y008785D01*
X013260Y008844D01*
X013293Y008908D01*
X013315Y008976D01*
X013326Y009047D01*
X013326Y009075D01*
X013324Y009030D02*
X013392Y009030D01*
X013440Y008872D02*
X013275Y008872D01*
X013138Y008713D02*
X013565Y008713D01*
X013760Y008555D02*
X012978Y008555D01*
X012878Y008713D02*
X012861Y008713D01*
X012861Y008872D02*
X012878Y008872D01*
X012861Y009030D02*
X012878Y009030D01*
X012861Y009189D02*
X012878Y009189D01*
X012861Y009347D02*
X012878Y009347D01*
X012861Y009506D02*
X012878Y009506D01*
X012691Y009506D02*
X012585Y009506D01*
X012585Y009664D02*
X012634Y009664D01*
X012601Y008713D02*
X012585Y008713D01*
X012585Y008555D02*
X012760Y008555D01*
X013231Y008396D02*
X013507Y008396D01*
X013417Y008238D02*
X013322Y008238D01*
X013346Y008079D02*
X013392Y008079D01*
X013420Y007921D02*
X013318Y007921D01*
X013223Y007762D02*
X013516Y007762D01*
X013599Y007488D02*
X013465Y007354D01*
X013392Y007178D01*
X013392Y006988D01*
X013465Y006813D01*
X013599Y006679D01*
X013774Y006606D01*
X013964Y006606D01*
X014140Y006679D01*
X014274Y006813D01*
X014346Y006988D01*
X014346Y007178D01*
X014274Y007354D01*
X014140Y007488D01*
X013964Y007560D01*
X013774Y007560D01*
X013599Y007488D01*
X013556Y007445D02*
X013149Y007445D01*
X013279Y007287D02*
X013437Y007287D01*
X013392Y007128D02*
X013325Y007128D01*
X013326Y007075D02*
X012878Y007075D01*
X012878Y006626D01*
X012905Y006626D01*
X012976Y006637D01*
X013045Y006660D01*
X013109Y006692D01*
X013167Y006735D01*
X013218Y006785D01*
X013260Y006844D01*
X013293Y006908D01*
X013315Y006976D01*
X013326Y007047D01*
X013326Y007075D01*
X013313Y006970D02*
X013400Y006970D01*
X013467Y006811D02*
X013237Y006811D01*
X013023Y006653D02*
X013662Y006653D01*
X013774Y006560D02*
X013599Y006488D01*
X013465Y006354D01*
X013392Y006178D01*
X013392Y005988D01*
X013465Y005813D01*
X013599Y005679D01*
X013774Y005606D01*
X013964Y005606D01*
X014140Y005679D01*
X014274Y005813D01*
X014346Y005988D01*
X014346Y006178D01*
X014274Y006354D01*
X014140Y006488D01*
X013964Y006560D01*
X013774Y006560D01*
X013614Y006494D02*
X013124Y006494D01*
X013281Y006336D02*
X013457Y006336D01*
X013392Y006177D02*
X013346Y006177D01*
X013346Y006019D02*
X013392Y006019D01*
X013445Y005860D02*
X013293Y005860D01*
X013162Y005702D02*
X013576Y005702D01*
X013599Y005488D02*
X013465Y005354D01*
X013392Y005178D01*
X013392Y004988D01*
X013465Y004813D01*
X013599Y004679D01*
X013774Y004606D01*
X013964Y004606D01*
X014140Y004679D01*
X014274Y004813D01*
X014346Y004988D01*
X014346Y005178D01*
X014274Y005354D01*
X014140Y005488D01*
X013964Y005560D01*
X013774Y005560D01*
X013599Y005488D01*
X013733Y005543D02*
X013006Y005543D01*
X012733Y005543D02*
X012585Y005543D01*
X013243Y005385D02*
X013496Y005385D01*
X013412Y005226D02*
X013327Y005226D01*
X013346Y005068D02*
X013392Y005068D01*
X013425Y004909D02*
X013314Y004909D01*
X013211Y004751D02*
X013527Y004751D01*
X013630Y004474D02*
X013571Y004432D01*
X013521Y004381D01*
X013478Y004323D01*
X013446Y004259D01*
X013423Y004190D01*
X013412Y004119D01*
X013412Y004092D01*
X013861Y004092D01*
X013861Y004540D01*
X013833Y004540D01*
X013762Y004529D01*
X013694Y004507D01*
X013630Y004474D01*
X013574Y004434D02*
X013194Y004434D01*
X013306Y004275D02*
X013454Y004275D01*
X013412Y004117D02*
X013346Y004117D01*
X013412Y004075D02*
X013412Y004047D01*
X013423Y003976D01*
X013446Y003908D01*
X013478Y003844D01*
X013521Y003785D01*
X013571Y003735D01*
X013630Y003692D01*
X013694Y003660D01*
X013762Y003637D01*
X013833Y003626D01*
X013861Y003626D01*
X013861Y004075D01*
X013878Y004075D01*
X013878Y004092D01*
X014326Y004092D01*
X014326Y004119D01*
X014315Y004190D01*
X014293Y004259D01*
X014260Y004323D01*
X014218Y004381D01*
X014167Y004432D01*
X014109Y004474D01*
X014045Y004507D01*
X013976Y004529D01*
X013905Y004540D01*
X013878Y004540D01*
X013878Y004092D01*
X013861Y004092D01*
X013861Y004075D01*
X013412Y004075D01*
X013429Y003958D02*
X013334Y003958D01*
X013260Y003800D02*
X013510Y003800D01*
X013751Y003641D02*
X013049Y003641D01*
X013250Y003324D02*
X012585Y003324D01*
X012585Y003166D02*
X012772Y003166D01*
X012585Y003483D02*
X023272Y003483D01*
X023272Y003641D02*
X013988Y003641D01*
X013976Y003637D02*
X014045Y003660D01*
X014109Y003692D01*
X014167Y003735D01*
X014218Y003785D01*
X014260Y003844D01*
X014293Y003908D01*
X014315Y003976D01*
X014326Y004047D01*
X014326Y004075D01*
X013878Y004075D01*
X013878Y003626D01*
X013905Y003626D01*
X013976Y003637D01*
X013878Y003641D02*
X013861Y003641D01*
X013861Y003800D02*
X013878Y003800D01*
X013861Y003958D02*
X013878Y003958D01*
X013861Y004117D02*
X013878Y004117D01*
X013861Y004275D02*
X013878Y004275D01*
X013861Y004434D02*
X013878Y004434D01*
X014165Y004434D02*
X023272Y004434D01*
X023272Y004592D02*
X012585Y004592D01*
X012585Y003641D02*
X012690Y003641D01*
X013289Y003324D02*
X013449Y003324D01*
X013449Y003329D02*
X013449Y002246D01*
X014532Y002246D01*
X014519Y002361D01*
X014490Y002489D01*
X014447Y002612D01*
X014390Y002730D01*
X014320Y002841D01*
X014239Y002943D01*
X014146Y003035D01*
X014044Y003117D01*
X013933Y003187D01*
X013816Y003243D01*
X013692Y003287D01*
X013565Y003316D01*
X013449Y003329D01*
X013488Y003324D02*
X022305Y003324D01*
X022344Y003324D02*
X022504Y003324D01*
X022543Y003324D02*
X023272Y003324D01*
X023272Y003166D02*
X023022Y003166D01*
X023230Y003007D02*
X023272Y003007D01*
X023272Y003800D02*
X014228Y003800D01*
X014309Y003958D02*
X023272Y003958D01*
X023272Y004117D02*
X014326Y004117D01*
X014285Y004275D02*
X023272Y004275D01*
X023272Y004751D02*
X014211Y004751D01*
X014314Y004909D02*
X023272Y004909D01*
X023272Y005068D02*
X022179Y005068D01*
X022230Y005089D02*
X022379Y005238D01*
X022460Y005433D01*
X022460Y005644D01*
X022379Y005838D01*
X022230Y005988D01*
X022132Y006028D01*
X022284Y006028D01*
X022329Y006040D01*
X022371Y006064D01*
X022404Y006098D01*
X022428Y006139D01*
X022440Y006184D01*
X022440Y006530D01*
X021939Y006530D01*
X021939Y006547D01*
X022440Y006547D01*
X022440Y006892D01*
X022428Y006938D01*
X022404Y006979D01*
X022371Y007012D01*
X022329Y007036D01*
X022284Y007048D01*
X021939Y007048D01*
X021939Y006547D01*
X021921Y006547D01*
X021921Y006530D01*
X021420Y006530D01*
X021420Y006184D01*
X021432Y006139D01*
X021456Y006098D01*
X021489Y006064D01*
X021531Y006040D01*
X021576Y006028D01*
X021728Y006028D01*
X021630Y005988D01*
X021481Y005838D01*
X021400Y005644D01*
X021400Y005433D01*
X021481Y005238D01*
X021630Y005089D01*
X021825Y005008D01*
X022035Y005008D01*
X022230Y005089D01*
X022368Y005226D02*
X023272Y005226D01*
X023272Y005385D02*
X022440Y005385D01*
X022460Y005543D02*
X023272Y005543D01*
X023272Y005702D02*
X022436Y005702D01*
X022358Y005860D02*
X023272Y005860D01*
X023272Y006019D02*
X022155Y006019D01*
X022438Y006177D02*
X023272Y006177D01*
X023272Y006336D02*
X022440Y006336D01*
X022440Y006494D02*
X023272Y006494D01*
X023272Y006653D02*
X022440Y006653D01*
X022440Y006811D02*
X023272Y006811D01*
X023272Y006970D02*
X022409Y006970D01*
X021939Y006970D02*
X021921Y006970D01*
X021921Y007048D02*
X021921Y006547D01*
X021420Y006547D01*
X021420Y006892D01*
X021432Y006938D01*
X021456Y006979D01*
X021489Y007012D01*
X021531Y007036D01*
X021576Y007048D01*
X021921Y007048D01*
X021921Y006811D02*
X021939Y006811D01*
X021939Y006653D02*
X021921Y006653D01*
X021420Y006653D02*
X018580Y006653D01*
X018672Y006811D02*
X021420Y006811D01*
X021451Y006970D02*
X018683Y006970D01*
X018625Y007128D02*
X023272Y007128D01*
X023272Y007287D02*
X018555Y007287D01*
X018555Y007445D02*
X023272Y007445D01*
X023272Y007604D02*
X018555Y007604D01*
X018555Y007762D02*
X023272Y007762D01*
X023272Y007921D02*
X018555Y007921D01*
X018555Y008079D02*
X023272Y008079D01*
X023272Y008238D02*
X018555Y008238D01*
X018555Y008396D02*
X023272Y008396D01*
X023272Y008555D02*
X018555Y008555D01*
X018555Y008713D02*
X023272Y008713D01*
X023272Y008872D02*
X018555Y008872D01*
X018555Y009030D02*
X019477Y009030D01*
X019428Y009080D02*
X019534Y008973D01*
X019673Y008916D01*
X019824Y008916D01*
X019963Y008973D01*
X020069Y009080D01*
X020127Y009219D01*
X020127Y009369D01*
X020069Y009508D01*
X019998Y009579D01*
X019998Y017101D01*
X021457Y017101D01*
X021528Y017030D01*
X021667Y016972D01*
X021818Y016972D01*
X021957Y017030D01*
X022063Y017136D01*
X022121Y017275D01*
X022121Y017426D01*
X022063Y017565D01*
X021957Y017672D01*
X021818Y017729D01*
X021667Y017729D01*
X021528Y017672D01*
X021457Y017601D01*
X019818Y017601D01*
X019726Y017563D01*
X019656Y017492D01*
X019536Y017373D01*
X019498Y017281D01*
X019498Y009579D01*
X019428Y009508D01*
X019370Y009369D01*
X019370Y009219D01*
X019428Y009080D01*
X019382Y009189D02*
X018555Y009189D01*
X018661Y009347D02*
X019370Y009347D01*
X019426Y009506D02*
X018683Y009506D01*
X018637Y009664D02*
X019498Y009664D01*
X019498Y009823D02*
X018456Y009823D01*
X018154Y009823D02*
X018055Y009823D01*
X018055Y009981D02*
X019498Y009981D01*
X019498Y010140D02*
X018055Y010140D01*
X018055Y010298D02*
X019498Y010298D01*
X019498Y010457D02*
X018055Y010457D01*
X018055Y010615D02*
X019498Y010615D01*
X019498Y010774D02*
X018055Y010774D01*
X018055Y010932D02*
X019498Y010932D01*
X019498Y011091D02*
X018055Y011091D01*
X018239Y011249D02*
X019498Y011249D01*
X019498Y011408D02*
X018308Y011408D01*
X018302Y011566D02*
X019498Y011566D01*
X019498Y011725D02*
X018216Y011725D01*
X017644Y011725D02*
X017625Y011725D01*
X017625Y011883D02*
X019498Y011883D01*
X019498Y012042D02*
X017625Y012042D01*
X017625Y012200D02*
X019498Y012200D01*
X019498Y012359D02*
X017625Y012359D01*
X017625Y012517D02*
X019498Y012517D01*
X019498Y012676D02*
X017625Y012676D01*
X017625Y012834D02*
X019498Y012834D01*
X019498Y012993D02*
X017625Y012993D01*
X017625Y013151D02*
X019498Y013151D01*
X019498Y013310D02*
X017625Y013310D01*
X017625Y013468D02*
X019498Y013468D01*
X019498Y013627D02*
X017625Y013627D01*
X017625Y013785D02*
X019498Y013785D01*
X019498Y013944D02*
X017625Y013944D01*
X017625Y014102D02*
X019498Y014102D01*
X019498Y014261D02*
X017625Y014261D01*
X017625Y014419D02*
X019498Y014419D01*
X019498Y014578D02*
X017625Y014578D01*
X017625Y014736D02*
X019498Y014736D01*
X019498Y014895D02*
X017655Y014895D01*
X017683Y015053D02*
X019498Y015053D01*
X019498Y015212D02*
X017643Y015212D01*
X017625Y015370D02*
X019498Y015370D01*
X019498Y015529D02*
X017625Y015529D01*
X017625Y015687D02*
X019498Y015687D01*
X019498Y015846D02*
X017625Y015846D01*
X017625Y016004D02*
X019498Y016004D01*
X019498Y016163D02*
X017625Y016163D01*
X017625Y016321D02*
X019498Y016321D01*
X019498Y016480D02*
X017625Y016480D01*
X017625Y016638D02*
X019498Y016638D01*
X019498Y016797D02*
X017625Y016797D01*
X017625Y016955D02*
X019498Y016955D01*
X019498Y017114D02*
X017625Y017114D01*
X017625Y017272D02*
X019498Y017272D01*
X019594Y017431D02*
X017625Y017431D01*
X017625Y017589D02*
X019790Y017589D01*
X019656Y017492D02*
X019656Y017492D01*
X019998Y016955D02*
X023272Y016955D01*
X023272Y016797D02*
X019998Y016797D01*
X019998Y016638D02*
X023272Y016638D01*
X023272Y016480D02*
X019998Y016480D01*
X019998Y016321D02*
X023272Y016321D01*
X023272Y016163D02*
X019998Y016163D01*
X019998Y016004D02*
X023272Y016004D01*
X023272Y015846D02*
X019998Y015846D01*
X019998Y015687D02*
X023272Y015687D01*
X023272Y015529D02*
X019998Y015529D01*
X019998Y015370D02*
X023272Y015370D01*
X023272Y015212D02*
X019998Y015212D01*
X019998Y015053D02*
X023272Y015053D01*
X023272Y014895D02*
X019998Y014895D01*
X019998Y014736D02*
X023272Y014736D01*
X023272Y014578D02*
X019998Y014578D01*
X019998Y014419D02*
X023272Y014419D01*
X023272Y014261D02*
X019998Y014261D01*
X019998Y014102D02*
X023272Y014102D01*
X023272Y013944D02*
X019998Y013944D01*
X019998Y013785D02*
X023272Y013785D01*
X023272Y013627D02*
X019998Y013627D01*
X019998Y013468D02*
X023272Y013468D01*
X023272Y013310D02*
X019998Y013310D01*
X019998Y013151D02*
X023272Y013151D01*
X023272Y012993D02*
X019998Y012993D01*
X019998Y012834D02*
X023272Y012834D01*
X023272Y012676D02*
X019998Y012676D01*
X019998Y012517D02*
X023272Y012517D01*
X023272Y012359D02*
X019998Y012359D01*
X019998Y012200D02*
X023272Y012200D01*
X023272Y012042D02*
X019998Y012042D01*
X019998Y011883D02*
X023272Y011883D01*
X023272Y011725D02*
X019998Y011725D01*
X019998Y011566D02*
X023272Y011566D01*
X023272Y011408D02*
X019998Y011408D01*
X019998Y011249D02*
X023272Y011249D01*
X023272Y011091D02*
X019998Y011091D01*
X019998Y010932D02*
X023272Y010932D01*
X023272Y010774D02*
X019998Y010774D01*
X019998Y010615D02*
X023272Y010615D01*
X023272Y010457D02*
X019998Y010457D01*
X019998Y010298D02*
X023272Y010298D01*
X023272Y010140D02*
X019998Y010140D01*
X019998Y009981D02*
X023272Y009981D01*
X023272Y009823D02*
X019998Y009823D01*
X019998Y009664D02*
X023272Y009664D01*
X023272Y009506D02*
X020070Y009506D01*
X020127Y009347D02*
X023272Y009347D01*
X023272Y009189D02*
X020114Y009189D01*
X020020Y009030D02*
X023272Y009030D01*
X021420Y006494D02*
X014124Y006494D01*
X014077Y006653D02*
X018030Y006653D01*
X017938Y006811D02*
X014272Y006811D01*
X014339Y006970D02*
X017927Y006970D01*
X017985Y007128D02*
X014346Y007128D01*
X014302Y007287D02*
X018055Y007287D01*
X018055Y007445D02*
X014182Y007445D01*
X014223Y007762D02*
X018055Y007762D01*
X018055Y007604D02*
X012585Y007604D01*
X012585Y007445D02*
X012590Y007445D01*
X012861Y007445D02*
X012878Y007445D01*
X012861Y007287D02*
X012878Y007287D01*
X012861Y007128D02*
X012878Y007128D01*
X012861Y006970D02*
X012878Y006970D01*
X012861Y006811D02*
X012878Y006811D01*
X012861Y006653D02*
X012878Y006653D01*
X012715Y006653D02*
X012585Y006653D01*
X012585Y006494D02*
X012614Y006494D01*
X014006Y005543D02*
X021400Y005543D01*
X021420Y005385D02*
X014243Y005385D01*
X014327Y005226D02*
X021492Y005226D01*
X021681Y005068D02*
X014346Y005068D01*
X014162Y005702D02*
X021424Y005702D01*
X021502Y005860D02*
X014293Y005860D01*
X014346Y006019D02*
X021705Y006019D01*
X021422Y006177D02*
X014346Y006177D01*
X014281Y006336D02*
X021420Y006336D01*
X022102Y003287D02*
X021978Y003243D01*
X021860Y003187D01*
X021750Y003117D01*
X021647Y003035D01*
X021555Y002943D01*
X021473Y002841D01*
X021404Y002730D01*
X021347Y002612D01*
X021304Y002489D01*
X021275Y002361D01*
X021262Y002246D01*
X022344Y002246D01*
X022344Y003329D01*
X022229Y003316D01*
X022102Y003287D01*
X022344Y003166D02*
X022504Y003166D01*
X022504Y003007D02*
X022344Y003007D01*
X022344Y002849D02*
X022504Y002849D01*
X022504Y002690D02*
X022344Y002690D01*
X022344Y002532D02*
X022504Y002532D01*
X022504Y002373D02*
X022344Y002373D01*
X022344Y002215D02*
X013449Y002215D01*
X013449Y002373D02*
X013289Y002373D01*
X013289Y002532D02*
X013449Y002532D01*
X013449Y002690D02*
X013289Y002690D01*
X013289Y002849D02*
X013449Y002849D01*
X013449Y003007D02*
X013289Y003007D01*
X013289Y003166D02*
X013449Y003166D01*
X013967Y003166D02*
X021827Y003166D01*
X021619Y003007D02*
X014175Y003007D01*
X014314Y002849D02*
X021480Y002849D01*
X021385Y002690D02*
X014409Y002690D01*
X014475Y002532D02*
X021319Y002532D01*
X021277Y002373D02*
X014516Y002373D01*
X014529Y002056D02*
X021265Y002056D01*
X021291Y001898D02*
X014502Y001898D01*
X014453Y001739D02*
X021340Y001739D01*
X021417Y001581D02*
X014377Y001581D01*
X014265Y001422D02*
X021528Y001422D01*
X018055Y007921D02*
X017407Y007921D01*
X017203Y007921D02*
X015229Y007921D01*
X015387Y008079D02*
X016982Y008079D01*
X016927Y008213D02*
X016927Y008285D01*
X016855Y008285D01*
X016716Y008342D01*
X016609Y008449D01*
X016552Y008588D01*
X016552Y008738D01*
X016609Y008878D01*
X016680Y008948D01*
X016680Y009628D01*
X016609Y009699D01*
X016552Y009838D01*
X016552Y009988D01*
X016609Y010128D01*
X016680Y010198D01*
X016680Y017310D01*
X016634Y017264D01*
X016509Y017139D01*
X016417Y017101D01*
X016096Y017101D01*
X016055Y017060D01*
X016055Y015613D01*
X016017Y015522D01*
X015974Y015479D01*
X016005Y015479D01*
X016144Y015422D01*
X016251Y015315D01*
X016308Y015176D01*
X016308Y015025D01*
X016251Y014886D01*
X016180Y014816D01*
X016180Y012011D01*
X016251Y011940D01*
X016308Y011801D01*
X016308Y011650D01*
X016251Y011511D01*
X016144Y011405D01*
X016005Y011347D01*
X015855Y011347D01*
X015805Y011368D01*
X015805Y009370D01*
X015832Y009359D01*
X015938Y009253D01*
X015996Y009113D01*
X015996Y008963D01*
X015938Y008824D01*
X015832Y008717D01*
X015693Y008660D01*
X015542Y008660D01*
X015492Y008680D01*
X015492Y008238D01*
X015492Y008396D02*
X016662Y008396D01*
X016565Y008555D02*
X015492Y008555D01*
X015822Y008713D02*
X016552Y008713D01*
X016607Y008872D02*
X015958Y008872D01*
X015996Y009030D02*
X016680Y009030D01*
X016680Y009189D02*
X015965Y009189D01*
X015844Y009347D02*
X016680Y009347D01*
X016680Y009506D02*
X015805Y009506D01*
X015805Y009664D02*
X016644Y009664D01*
X016558Y009823D02*
X015805Y009823D01*
X015805Y009981D02*
X016552Y009981D01*
X016621Y010140D02*
X015805Y010140D01*
X015805Y010298D02*
X016680Y010298D01*
X016680Y010457D02*
X015805Y010457D01*
X015805Y010615D02*
X016680Y010615D01*
X016680Y010774D02*
X015805Y010774D01*
X015805Y010932D02*
X016680Y010932D01*
X016680Y011091D02*
X015805Y011091D01*
X015805Y011249D02*
X016680Y011249D01*
X016680Y011408D02*
X016147Y011408D01*
X016274Y011566D02*
X016680Y011566D01*
X016680Y011725D02*
X016308Y011725D01*
X016274Y011883D02*
X016680Y011883D01*
X016680Y012042D02*
X016180Y012042D01*
X016180Y012200D02*
X016680Y012200D01*
X016680Y012359D02*
X016180Y012359D01*
X016180Y012517D02*
X016680Y012517D01*
X016680Y012676D02*
X016180Y012676D01*
X016180Y012834D02*
X016680Y012834D01*
X016680Y012993D02*
X016180Y012993D01*
X016180Y013151D02*
X016680Y013151D01*
X016680Y013310D02*
X016180Y013310D01*
X016180Y013468D02*
X016680Y013468D01*
X016680Y013627D02*
X016180Y013627D01*
X016180Y013785D02*
X016680Y013785D01*
X016680Y013944D02*
X016180Y013944D01*
X016180Y014102D02*
X016680Y014102D01*
X016680Y014261D02*
X016180Y014261D01*
X016180Y014419D02*
X016680Y014419D01*
X016680Y014578D02*
X016180Y014578D01*
X016180Y014736D02*
X016680Y014736D01*
X016680Y014895D02*
X016254Y014895D01*
X016308Y015053D02*
X016680Y015053D01*
X016680Y015212D02*
X016294Y015212D01*
X016196Y015370D02*
X016680Y015370D01*
X016680Y015529D02*
X016020Y015529D01*
X016055Y015687D02*
X016680Y015687D01*
X016680Y015846D02*
X016055Y015846D01*
X016055Y016004D02*
X016680Y016004D01*
X016680Y016163D02*
X016055Y016163D01*
X016055Y016321D02*
X016680Y016321D01*
X016680Y016480D02*
X016055Y016480D01*
X016055Y016638D02*
X016680Y016638D01*
X016680Y016797D02*
X016055Y016797D01*
X016055Y016955D02*
X016680Y016955D01*
X016680Y017114D02*
X016449Y017114D01*
X016643Y017272D02*
X016680Y017272D01*
X016118Y017748D02*
X014208Y017748D01*
X014197Y017431D02*
X015719Y017431D01*
X015580Y017272D02*
X014308Y017272D01*
X014346Y017114D02*
X015555Y017114D01*
X015555Y016955D02*
X014333Y016955D01*
X014257Y016797D02*
X015555Y016797D01*
X015555Y016638D02*
X015053Y016638D01*
X015161Y016480D02*
X015211Y016480D01*
X014557Y016638D02*
X014042Y016638D01*
X014148Y016480D02*
X014449Y016480D01*
X014427Y016321D02*
X014287Y016321D01*
X014346Y016163D02*
X014473Y016163D01*
X014361Y016004D02*
X014346Y016004D01*
X014302Y015846D02*
X014287Y015846D01*
X014312Y015687D02*
X014148Y015687D01*
X014041Y015529D02*
X014404Y015529D01*
X014257Y015370D02*
X014618Y015370D01*
X014618Y015212D02*
X014333Y015212D01*
X014346Y015053D02*
X014618Y015053D01*
X014618Y014895D02*
X014308Y014895D01*
X014197Y014736D02*
X014618Y014736D01*
X014618Y014578D02*
X012585Y014578D01*
X012861Y014419D02*
X012878Y014419D01*
X012861Y014261D02*
X012878Y014261D01*
X012861Y014102D02*
X012878Y014102D01*
X012861Y013944D02*
X012878Y013944D01*
X012861Y013785D02*
X012878Y013785D01*
X012861Y013627D02*
X012878Y013627D01*
X012909Y013627D02*
X013725Y013627D01*
X014014Y013627D02*
X014305Y013627D01*
X014305Y013785D02*
X014246Y013785D01*
X014305Y013468D02*
X014159Y013468D01*
X014292Y013310D02*
X014305Y013310D01*
X014561Y014261D02*
X014618Y014261D01*
X014618Y014419D02*
X014208Y014419D01*
X012830Y013627D02*
X012585Y013627D01*
X012585Y012676D02*
X012606Y012676D01*
X012585Y012517D02*
X012670Y012517D01*
X013370Y011249D02*
X013442Y011249D01*
X013412Y011075D02*
X013412Y011047D01*
X013423Y010976D01*
X013446Y010908D01*
X013478Y010844D01*
X013521Y010785D01*
X013571Y010735D01*
X013630Y010692D01*
X013694Y010660D01*
X013762Y010637D01*
X013833Y010626D01*
X013861Y010626D01*
X013861Y011075D01*
X013412Y011075D01*
X013346Y011091D02*
X013861Y011091D01*
X013878Y011091D02*
X014805Y011091D01*
X014805Y010298D02*
X014297Y010298D01*
X014346Y010140D02*
X014805Y010140D01*
X014805Y009981D02*
X014343Y009981D01*
X014278Y009823D02*
X014805Y009823D01*
X014805Y009664D02*
X014104Y009664D01*
X014096Y009506D02*
X014805Y009506D01*
X014805Y009347D02*
X014276Y009347D01*
X014174Y008713D02*
X014993Y008713D01*
X014993Y008555D02*
X013978Y008555D01*
X014231Y008396D02*
X014993Y008396D01*
X013878Y010774D02*
X013861Y010774D01*
X013861Y010932D02*
X013878Y010932D01*
X013532Y010774D02*
X013234Y010774D01*
X013323Y010932D02*
X013438Y010932D01*
X012698Y015529D02*
X012585Y015529D01*
X012585Y015687D02*
X012591Y015687D01*
X012861Y016797D02*
X012878Y016797D01*
X012861Y016955D02*
X012878Y016955D01*
X012861Y017114D02*
X012878Y017114D01*
X012861Y017272D02*
X012878Y017272D01*
X012861Y017431D02*
X012878Y017431D01*
X013168Y017431D02*
X013542Y017431D01*
X013431Y017272D02*
X013286Y017272D01*
X013326Y017114D02*
X013392Y017114D01*
X013406Y016955D02*
X013308Y016955D01*
X013226Y016797D02*
X013481Y016797D01*
X013530Y017748D02*
X013208Y017748D01*
X013312Y017906D02*
X013426Y017906D01*
X013392Y018065D02*
X013346Y018065D01*
X013328Y018223D02*
X013411Y018223D01*
X013493Y018382D02*
X013246Y018382D01*
X013013Y018540D02*
X013725Y018540D01*
X013762Y018637D02*
X013833Y018626D01*
X013861Y018626D01*
X013861Y019075D01*
X013878Y019075D01*
X013878Y019092D01*
X014326Y019092D01*
X014326Y019119D01*
X014315Y019190D01*
X014293Y019259D01*
X014260Y019323D01*
X014218Y019381D01*
X014167Y019432D01*
X014109Y019474D01*
X014045Y019507D01*
X013976Y019529D01*
X013905Y019540D01*
X013878Y019540D01*
X013878Y019092D01*
X013861Y019092D01*
X013861Y019540D01*
X013833Y019540D01*
X013762Y019529D01*
X013694Y019507D01*
X013630Y019474D01*
X013571Y019432D01*
X013521Y019381D01*
X013478Y019323D01*
X013446Y019259D01*
X013423Y019190D01*
X013412Y019119D01*
X013412Y019092D01*
X013861Y019092D01*
X013861Y019075D01*
X013412Y019075D01*
X013412Y019047D01*
X013423Y018976D01*
X013446Y018908D01*
X013478Y018844D01*
X013521Y018785D01*
X013571Y018735D01*
X013630Y018692D01*
X013694Y018660D01*
X013762Y018637D01*
X013878Y018626D02*
X013905Y018626D01*
X013976Y018637D01*
X014045Y018660D01*
X014109Y018692D01*
X014167Y018735D01*
X014218Y018785D01*
X014260Y018844D01*
X014293Y018908D01*
X014315Y018976D01*
X014326Y019047D01*
X014326Y019075D01*
X013878Y019075D01*
X013878Y018626D01*
X013878Y018699D02*
X013861Y018699D01*
X013861Y018857D02*
X013878Y018857D01*
X013861Y019016D02*
X013878Y019016D01*
X013861Y019174D02*
X013878Y019174D01*
X013861Y019333D02*
X013878Y019333D01*
X013861Y019491D02*
X013878Y019491D01*
X013964Y019606D02*
X013774Y019606D01*
X013599Y019679D01*
X013465Y019813D01*
X013392Y019988D01*
X013392Y020178D01*
X013465Y020354D01*
X013599Y020488D01*
X013774Y020560D01*
X013964Y020560D01*
X014140Y020488D01*
X014274Y020354D01*
X014346Y020178D01*
X014346Y019988D01*
X014274Y019813D01*
X014140Y019679D01*
X013964Y019606D01*
X014069Y019650D02*
X016985Y019650D01*
X016985Y019808D02*
X014269Y019808D01*
X014337Y019967D02*
X016985Y019967D01*
X016985Y020125D02*
X014346Y020125D01*
X014303Y020284D02*
X016985Y020284D01*
X016985Y020442D02*
X014185Y020442D01*
X014140Y020679D02*
X014274Y020813D01*
X014346Y020988D01*
X014346Y021178D01*
X014274Y021354D01*
X014140Y021488D01*
X013964Y021560D01*
X013774Y021560D01*
X013599Y021488D01*
X013465Y021354D01*
X013392Y021178D01*
X013392Y020988D01*
X013465Y020813D01*
X013599Y020679D01*
X013774Y020606D01*
X013964Y020606D01*
X014140Y020679D01*
X014220Y020759D02*
X016985Y020759D01*
X016985Y020601D02*
X012585Y020601D01*
X012878Y020626D02*
X012905Y020626D01*
X012976Y020637D01*
X013045Y020660D01*
X013109Y020692D01*
X013167Y020735D01*
X013218Y020785D01*
X013260Y020844D01*
X013293Y020908D01*
X013315Y020976D01*
X013326Y021047D01*
X013326Y021075D01*
X012878Y021075D01*
X012878Y020626D01*
X012878Y020759D02*
X012861Y020759D01*
X012861Y020918D02*
X012878Y020918D01*
X012878Y021076D02*
X013392Y021076D01*
X013416Y021235D02*
X013301Y021235D01*
X013206Y021393D02*
X013504Y021393D01*
X013753Y021552D02*
X012585Y021552D01*
X012861Y021393D02*
X012878Y021393D01*
X012861Y021235D02*
X012878Y021235D01*
X013171Y021710D02*
X013568Y021710D01*
X013599Y021679D02*
X013774Y021606D01*
X013964Y021606D01*
X014140Y021679D01*
X014274Y021813D01*
X014346Y021988D01*
X014346Y022178D01*
X014274Y022354D01*
X014140Y022488D01*
X013964Y022560D01*
X013774Y022560D01*
X013599Y022488D01*
X013465Y022354D01*
X013392Y022178D01*
X013392Y021988D01*
X013465Y021813D01*
X013599Y021679D01*
X013442Y021869D02*
X013297Y021869D01*
X013346Y022027D02*
X013392Y022027D01*
X013395Y022186D02*
X013343Y022186D01*
X013278Y022344D02*
X013461Y022344D01*
X013635Y022503D02*
X013104Y022503D01*
X013097Y022661D02*
X013454Y022661D01*
X013509Y022606D02*
X014229Y022606D01*
X014346Y022723D01*
X014346Y023443D01*
X014229Y023560D01*
X013509Y023560D01*
X013392Y023443D01*
X013392Y022723D01*
X013509Y022606D01*
X013392Y022820D02*
X013277Y022820D01*
X013342Y022978D02*
X013392Y022978D01*
X013392Y023137D02*
X013346Y023137D01*
X013392Y023295D02*
X013298Y023295D01*
X013403Y023454D02*
X013174Y023454D01*
X013449Y023838D02*
X013565Y023851D01*
X013692Y023880D01*
X013816Y023923D01*
X013933Y023980D01*
X014044Y024050D01*
X014146Y024131D01*
X014239Y024224D01*
X014320Y024326D01*
X014390Y024437D01*
X014447Y024554D01*
X014490Y024678D01*
X014519Y024805D01*
X014532Y024921D01*
X013449Y024921D01*
X013449Y023838D01*
X013449Y023929D02*
X013289Y023929D01*
X013289Y024088D02*
X013449Y024088D01*
X013449Y024246D02*
X013289Y024246D01*
X013289Y024405D02*
X013449Y024405D01*
X013449Y024563D02*
X013289Y024563D01*
X013289Y024722D02*
X013449Y024722D01*
X013449Y024880D02*
X013289Y024880D01*
X013449Y025039D02*
X022344Y025039D01*
X022344Y024880D02*
X022504Y024880D01*
X022504Y024722D02*
X022344Y024722D01*
X022344Y024563D02*
X022504Y024563D01*
X022504Y024405D02*
X022344Y024405D01*
X022344Y024246D02*
X022504Y024246D01*
X022504Y024088D02*
X022344Y024088D01*
X022344Y023929D02*
X022504Y023929D01*
X022883Y023929D02*
X023272Y023929D01*
X023272Y023771D02*
X012585Y023771D01*
X012585Y023929D02*
X012911Y023929D01*
X012647Y024088D02*
X012585Y024088D01*
X012585Y023612D02*
X023272Y023612D01*
X023272Y023454D02*
X014336Y023454D01*
X014346Y023295D02*
X023272Y023295D01*
X023272Y023137D02*
X014346Y023137D01*
X014346Y022978D02*
X023272Y022978D01*
X023272Y022820D02*
X019901Y022820D01*
X020075Y022661D02*
X023272Y022661D01*
X023272Y022503D02*
X020121Y022503D01*
X020098Y022344D02*
X023272Y022344D01*
X023272Y022186D02*
X022678Y022186D01*
X022678Y022188D02*
X022654Y022229D01*
X022621Y022262D01*
X022579Y022286D01*
X022534Y022298D01*
X022198Y022298D01*
X022198Y021807D01*
X022162Y021807D01*
X022162Y022298D01*
X021826Y022298D01*
X021781Y022286D01*
X021739Y022262D01*
X021706Y022229D01*
X021682Y022188D01*
X021670Y022142D01*
X021670Y021807D01*
X022162Y021807D01*
X022162Y021770D01*
X022198Y021770D01*
X022198Y021278D01*
X022534Y021278D01*
X022579Y021290D01*
X022621Y021314D01*
X022654Y021348D01*
X022678Y021389D01*
X022690Y021434D01*
X022690Y021770D01*
X022198Y021770D01*
X022198Y021807D01*
X022690Y021807D01*
X022690Y022142D01*
X022678Y022188D01*
X022690Y022027D02*
X023272Y022027D01*
X023272Y021869D02*
X022690Y021869D01*
X022690Y021710D02*
X023272Y021710D01*
X023272Y021552D02*
X022690Y021552D01*
X022679Y021393D02*
X023272Y021393D01*
X023272Y021235D02*
X017625Y021235D01*
X017625Y021393D02*
X021681Y021393D01*
X021682Y021389D02*
X021706Y021348D01*
X021739Y021314D01*
X021781Y021290D01*
X021826Y021278D01*
X022162Y021278D01*
X022162Y021770D01*
X021670Y021770D01*
X021670Y021434D01*
X021682Y021389D01*
X021670Y021552D02*
X017625Y021552D01*
X017625Y021710D02*
X021670Y021710D01*
X021670Y021869D02*
X017625Y021869D01*
X017625Y022027D02*
X021670Y022027D01*
X021682Y022186D02*
X019988Y022186D01*
X019584Y022820D02*
X014346Y022820D01*
X014284Y022661D02*
X017288Y022661D01*
X017129Y022503D02*
X014104Y022503D01*
X014278Y022344D02*
X017008Y022344D01*
X016985Y022186D02*
X014343Y022186D01*
X014346Y022027D02*
X016985Y022027D01*
X016985Y021869D02*
X014297Y021869D01*
X014171Y021710D02*
X016985Y021710D01*
X016985Y021552D02*
X013985Y021552D01*
X014234Y021393D02*
X016985Y021393D01*
X016985Y021235D02*
X014323Y021235D01*
X014346Y021076D02*
X016985Y021076D01*
X016985Y020918D02*
X014317Y020918D01*
X013519Y020759D02*
X013192Y020759D01*
X013296Y020918D02*
X013421Y020918D01*
X013553Y020442D02*
X013185Y020442D01*
X013303Y020284D02*
X013436Y020284D01*
X013392Y020125D02*
X013346Y020125D01*
X013337Y019967D02*
X013401Y019967D01*
X013470Y019808D02*
X013269Y019808D01*
X013069Y019650D02*
X013669Y019650D01*
X013663Y019491D02*
X013131Y019491D01*
X013282Y019333D02*
X013485Y019333D01*
X013421Y019174D02*
X013346Y019174D01*
X013346Y019016D02*
X013417Y019016D01*
X013471Y018857D02*
X013292Y018857D01*
X013159Y018699D02*
X013621Y018699D01*
X014013Y018540D02*
X016985Y018540D01*
X016985Y018382D02*
X014246Y018382D01*
X014118Y018699D02*
X016985Y018699D01*
X016985Y018857D02*
X014267Y018857D01*
X014321Y019016D02*
X016985Y019016D01*
X016985Y019174D02*
X014318Y019174D01*
X014253Y019333D02*
X016985Y019333D01*
X016985Y019491D02*
X014076Y019491D01*
X012725Y018540D02*
X012585Y018540D01*
X012585Y017589D02*
X015915Y017589D01*
X017625Y017748D02*
X023272Y017748D01*
X023272Y017906D02*
X017625Y017906D01*
X017625Y018065D02*
X023272Y018065D01*
X023272Y018223D02*
X017625Y018223D01*
X017625Y018382D02*
X023272Y018382D01*
X023272Y018540D02*
X017625Y018540D01*
X017625Y018699D02*
X023272Y018699D01*
X023272Y018857D02*
X017625Y018857D01*
X017625Y019016D02*
X023272Y019016D01*
X023272Y019174D02*
X017625Y019174D01*
X017625Y019333D02*
X023272Y019333D01*
X023272Y019491D02*
X017625Y019491D01*
X017625Y019650D02*
X023272Y019650D01*
X023272Y019808D02*
X017625Y019808D01*
X017625Y019967D02*
X023272Y019967D01*
X023272Y020125D02*
X017625Y020125D01*
X017625Y020284D02*
X023272Y020284D01*
X023272Y020442D02*
X017625Y020442D01*
X017625Y020601D02*
X023272Y020601D01*
X023272Y020759D02*
X017625Y020759D01*
X017625Y020918D02*
X023272Y020918D01*
X023272Y021076D02*
X017625Y021076D01*
X014450Y024563D02*
X021344Y024563D01*
X021294Y024722D02*
X014500Y024722D01*
X014527Y024880D02*
X021266Y024880D01*
X021275Y025197D02*
X014519Y025197D01*
X014478Y025356D02*
X021315Y025356D01*
X021379Y025514D02*
X014414Y025514D01*
X014322Y025673D02*
X021472Y025673D01*
X021608Y025831D02*
X014185Y025831D01*
X014370Y024405D02*
X021424Y024405D01*
X021537Y024246D02*
X014257Y024246D01*
X014092Y024088D02*
X021702Y024088D01*
X021966Y023929D02*
X013828Y023929D01*
X012641Y022661D02*
X012585Y022661D01*
X012585Y022503D02*
X012635Y022503D01*
X012585Y019650D02*
X012669Y019650D01*
X012607Y019491D02*
X012585Y019491D01*
X022039Y017589D02*
X023272Y017589D01*
X023272Y017431D02*
X022119Y017431D01*
X022120Y017272D02*
X023272Y017272D01*
X023272Y017114D02*
X022041Y017114D01*
X022162Y021393D02*
X022198Y021393D01*
X022198Y021552D02*
X022162Y021552D01*
X022162Y021710D02*
X022198Y021710D01*
X022198Y021869D02*
X022162Y021869D01*
X022162Y022027D02*
X022198Y022027D01*
X022198Y022186D02*
X022162Y022186D01*
X023147Y024088D02*
X023272Y024088D01*
X018055Y008238D02*
X017918Y008238D01*
X018055Y008079D02*
X017628Y008079D01*
X017683Y008238D02*
X017692Y008238D01*
D20*
X017305Y008288D02*
X017305Y011288D01*
X017305Y015038D01*
X017305Y022226D01*
X017555Y022476D01*
X019743Y022476D01*
X008692Y012151D02*
X008692Y010300D01*
X008692Y012151D02*
X008680Y012163D01*
M02*
