G75*
%MOIN*%
%OFA0B0*%
%FSLAX24Y24*%
%IPPOS*%
%LPD*%
%AMOC8*
5,1,8,0,0,1.08239X$1,22.5*
%
%ADD10C,0.0100*%
%ADD11C,0.0000*%
%ADD12C,0.0079*%
D10*
X000180Y000788D02*
X009235Y000788D01*
X011204Y002757D02*
X011991Y002757D01*
X011991Y001969D01*
X011993Y001903D01*
X011998Y001837D01*
X012008Y001771D01*
X012021Y001706D01*
X012037Y001642D01*
X012057Y001579D01*
X012081Y001517D01*
X012108Y001457D01*
X012138Y001398D01*
X012172Y001341D01*
X012209Y001286D01*
X012249Y001233D01*
X012291Y001182D01*
X012337Y001134D01*
X012385Y001088D01*
X012436Y001046D01*
X012489Y001006D01*
X012544Y000969D01*
X012601Y000935D01*
X012660Y000905D01*
X012720Y000878D01*
X012782Y000854D01*
X012845Y000834D01*
X012909Y000818D01*
X012974Y000805D01*
X013040Y000795D01*
X013106Y000790D01*
X013172Y000788D01*
X022621Y000788D01*
X022687Y000790D01*
X022753Y000795D01*
X022819Y000805D01*
X022884Y000818D01*
X022948Y000834D01*
X023011Y000854D01*
X023073Y000878D01*
X023133Y000905D01*
X023192Y000935D01*
X023249Y000969D01*
X023304Y001006D01*
X023357Y001046D01*
X023408Y001088D01*
X023456Y001134D01*
X023502Y001182D01*
X023544Y001233D01*
X023584Y001286D01*
X023621Y001341D01*
X023655Y001398D01*
X023685Y001457D01*
X023712Y001517D01*
X023736Y001579D01*
X023756Y001642D01*
X023772Y001706D01*
X023785Y001771D01*
X023795Y001837D01*
X023800Y001903D01*
X023802Y001969D01*
X023802Y025198D01*
X023802Y025197D02*
X023800Y025263D01*
X023795Y025329D01*
X023785Y025395D01*
X023772Y025460D01*
X023756Y025524D01*
X023736Y025587D01*
X023712Y025649D01*
X023685Y025709D01*
X023655Y025768D01*
X023621Y025825D01*
X023584Y025880D01*
X023544Y025933D01*
X023502Y025984D01*
X023456Y026032D01*
X023408Y026078D01*
X023357Y026120D01*
X023304Y026160D01*
X023249Y026197D01*
X023192Y026231D01*
X023133Y026261D01*
X023073Y026288D01*
X023011Y026312D01*
X022948Y026332D01*
X022884Y026348D01*
X022819Y026361D01*
X022753Y026371D01*
X022687Y026376D01*
X022621Y026378D01*
X022621Y026379D02*
X013172Y026379D01*
X013172Y026378D02*
X013106Y026376D01*
X013040Y026371D01*
X012974Y026361D01*
X012909Y026348D01*
X012845Y026332D01*
X012782Y026312D01*
X012720Y026288D01*
X012660Y026261D01*
X012601Y026231D01*
X012544Y026197D01*
X012489Y026160D01*
X012436Y026120D01*
X012385Y026078D01*
X012337Y026032D01*
X012291Y025984D01*
X012249Y025933D01*
X012209Y025880D01*
X012172Y025825D01*
X012138Y025768D01*
X012108Y025709D01*
X012081Y025649D01*
X012057Y025587D01*
X012037Y025524D01*
X012021Y025460D01*
X012008Y025395D01*
X011998Y025329D01*
X011993Y025263D01*
X011991Y025197D01*
X011991Y025198D02*
X011991Y022048D01*
X011204Y022048D01*
X011204Y024017D01*
X000180Y024017D01*
X000180Y000788D01*
X011204Y004627D02*
X011991Y004627D01*
X011991Y020178D01*
X011204Y020178D01*
X011204Y004627D01*
D11*
X011184Y004430D02*
X011186Y004451D01*
X011192Y004471D01*
X011201Y004491D01*
X011213Y004508D01*
X011228Y004522D01*
X011246Y004534D01*
X011266Y004542D01*
X011286Y004547D01*
X011307Y004548D01*
X011328Y004545D01*
X011348Y004539D01*
X011367Y004528D01*
X011384Y004515D01*
X011397Y004499D01*
X011408Y004481D01*
X011416Y004461D01*
X011420Y004441D01*
X011420Y004419D01*
X011416Y004399D01*
X011408Y004379D01*
X011397Y004361D01*
X011384Y004345D01*
X011367Y004332D01*
X011348Y004321D01*
X011328Y004315D01*
X011307Y004312D01*
X011286Y004313D01*
X011266Y004318D01*
X011246Y004326D01*
X011228Y004338D01*
X011213Y004352D01*
X011201Y004369D01*
X011192Y004389D01*
X011186Y004409D01*
X011184Y004430D01*
X011184Y004135D02*
X011186Y004156D01*
X011192Y004176D01*
X011201Y004196D01*
X011213Y004213D01*
X011228Y004227D01*
X011246Y004239D01*
X011266Y004247D01*
X011286Y004252D01*
X011307Y004253D01*
X011328Y004250D01*
X011348Y004244D01*
X011367Y004233D01*
X011384Y004220D01*
X011397Y004204D01*
X011408Y004186D01*
X011416Y004166D01*
X011420Y004146D01*
X011420Y004124D01*
X011416Y004104D01*
X011408Y004084D01*
X011397Y004066D01*
X011384Y004050D01*
X011367Y004037D01*
X011348Y004026D01*
X011328Y004020D01*
X011307Y004017D01*
X011286Y004018D01*
X011266Y004023D01*
X011246Y004031D01*
X011228Y004043D01*
X011213Y004057D01*
X011201Y004074D01*
X011192Y004094D01*
X011186Y004114D01*
X011184Y004135D01*
X011184Y003839D02*
X011186Y003860D01*
X011192Y003880D01*
X011201Y003900D01*
X011213Y003917D01*
X011228Y003931D01*
X011246Y003943D01*
X011266Y003951D01*
X011286Y003956D01*
X011307Y003957D01*
X011328Y003954D01*
X011348Y003948D01*
X011367Y003937D01*
X011384Y003924D01*
X011397Y003908D01*
X011408Y003890D01*
X011416Y003870D01*
X011420Y003850D01*
X011420Y003828D01*
X011416Y003808D01*
X011408Y003788D01*
X011397Y003770D01*
X011384Y003754D01*
X011367Y003741D01*
X011348Y003730D01*
X011328Y003724D01*
X011307Y003721D01*
X011286Y003722D01*
X011266Y003727D01*
X011246Y003735D01*
X011228Y003747D01*
X011213Y003761D01*
X011201Y003778D01*
X011192Y003798D01*
X011186Y003818D01*
X011184Y003839D01*
X011184Y003544D02*
X011186Y003565D01*
X011192Y003585D01*
X011201Y003605D01*
X011213Y003622D01*
X011228Y003636D01*
X011246Y003648D01*
X011266Y003656D01*
X011286Y003661D01*
X011307Y003662D01*
X011328Y003659D01*
X011348Y003653D01*
X011367Y003642D01*
X011384Y003629D01*
X011397Y003613D01*
X011408Y003595D01*
X011416Y003575D01*
X011420Y003555D01*
X011420Y003533D01*
X011416Y003513D01*
X011408Y003493D01*
X011397Y003475D01*
X011384Y003459D01*
X011367Y003446D01*
X011348Y003435D01*
X011328Y003429D01*
X011307Y003426D01*
X011286Y003427D01*
X011266Y003432D01*
X011246Y003440D01*
X011228Y003452D01*
X011213Y003466D01*
X011201Y003483D01*
X011192Y003503D01*
X011186Y003523D01*
X011184Y003544D01*
X011184Y003249D02*
X011186Y003270D01*
X011192Y003290D01*
X011201Y003310D01*
X011213Y003327D01*
X011228Y003341D01*
X011246Y003353D01*
X011266Y003361D01*
X011286Y003366D01*
X011307Y003367D01*
X011328Y003364D01*
X011348Y003358D01*
X011367Y003347D01*
X011384Y003334D01*
X011397Y003318D01*
X011408Y003300D01*
X011416Y003280D01*
X011420Y003260D01*
X011420Y003238D01*
X011416Y003218D01*
X011408Y003198D01*
X011397Y003180D01*
X011384Y003164D01*
X011367Y003151D01*
X011348Y003140D01*
X011328Y003134D01*
X011307Y003131D01*
X011286Y003132D01*
X011266Y003137D01*
X011246Y003145D01*
X011228Y003157D01*
X011213Y003171D01*
X011201Y003188D01*
X011192Y003208D01*
X011186Y003228D01*
X011184Y003249D01*
X011184Y002954D02*
X011186Y002975D01*
X011192Y002995D01*
X011201Y003015D01*
X011213Y003032D01*
X011228Y003046D01*
X011246Y003058D01*
X011266Y003066D01*
X011286Y003071D01*
X011307Y003072D01*
X011328Y003069D01*
X011348Y003063D01*
X011367Y003052D01*
X011384Y003039D01*
X011397Y003023D01*
X011408Y003005D01*
X011416Y002985D01*
X011420Y002965D01*
X011420Y002943D01*
X011416Y002923D01*
X011408Y002903D01*
X011397Y002885D01*
X011384Y002869D01*
X011367Y002856D01*
X011348Y002845D01*
X011328Y002839D01*
X011307Y002836D01*
X011286Y002837D01*
X011266Y002842D01*
X011246Y002850D01*
X011228Y002862D01*
X011213Y002876D01*
X011201Y002893D01*
X011192Y002913D01*
X011186Y002933D01*
X011184Y002954D01*
X011775Y002954D02*
X011777Y002975D01*
X011783Y002995D01*
X011792Y003015D01*
X011804Y003032D01*
X011819Y003046D01*
X011837Y003058D01*
X011857Y003066D01*
X011877Y003071D01*
X011898Y003072D01*
X011919Y003069D01*
X011939Y003063D01*
X011958Y003052D01*
X011975Y003039D01*
X011988Y003023D01*
X011999Y003005D01*
X012007Y002985D01*
X012011Y002965D01*
X012011Y002943D01*
X012007Y002923D01*
X011999Y002903D01*
X011988Y002885D01*
X011975Y002869D01*
X011958Y002856D01*
X011939Y002845D01*
X011919Y002839D01*
X011898Y002836D01*
X011877Y002837D01*
X011857Y002842D01*
X011837Y002850D01*
X011819Y002862D01*
X011804Y002876D01*
X011792Y002893D01*
X011783Y002913D01*
X011777Y002933D01*
X011775Y002954D01*
X011775Y003249D02*
X011777Y003270D01*
X011783Y003290D01*
X011792Y003310D01*
X011804Y003327D01*
X011819Y003341D01*
X011837Y003353D01*
X011857Y003361D01*
X011877Y003366D01*
X011898Y003367D01*
X011919Y003364D01*
X011939Y003358D01*
X011958Y003347D01*
X011975Y003334D01*
X011988Y003318D01*
X011999Y003300D01*
X012007Y003280D01*
X012011Y003260D01*
X012011Y003238D01*
X012007Y003218D01*
X011999Y003198D01*
X011988Y003180D01*
X011975Y003164D01*
X011958Y003151D01*
X011939Y003140D01*
X011919Y003134D01*
X011898Y003131D01*
X011877Y003132D01*
X011857Y003137D01*
X011837Y003145D01*
X011819Y003157D01*
X011804Y003171D01*
X011792Y003188D01*
X011783Y003208D01*
X011777Y003228D01*
X011775Y003249D01*
X011775Y003544D02*
X011777Y003565D01*
X011783Y003585D01*
X011792Y003605D01*
X011804Y003622D01*
X011819Y003636D01*
X011837Y003648D01*
X011857Y003656D01*
X011877Y003661D01*
X011898Y003662D01*
X011919Y003659D01*
X011939Y003653D01*
X011958Y003642D01*
X011975Y003629D01*
X011988Y003613D01*
X011999Y003595D01*
X012007Y003575D01*
X012011Y003555D01*
X012011Y003533D01*
X012007Y003513D01*
X011999Y003493D01*
X011988Y003475D01*
X011975Y003459D01*
X011958Y003446D01*
X011939Y003435D01*
X011919Y003429D01*
X011898Y003426D01*
X011877Y003427D01*
X011857Y003432D01*
X011837Y003440D01*
X011819Y003452D01*
X011804Y003466D01*
X011792Y003483D01*
X011783Y003503D01*
X011777Y003523D01*
X011775Y003544D01*
X011775Y003839D02*
X011777Y003860D01*
X011783Y003880D01*
X011792Y003900D01*
X011804Y003917D01*
X011819Y003931D01*
X011837Y003943D01*
X011857Y003951D01*
X011877Y003956D01*
X011898Y003957D01*
X011919Y003954D01*
X011939Y003948D01*
X011958Y003937D01*
X011975Y003924D01*
X011988Y003908D01*
X011999Y003890D01*
X012007Y003870D01*
X012011Y003850D01*
X012011Y003828D01*
X012007Y003808D01*
X011999Y003788D01*
X011988Y003770D01*
X011975Y003754D01*
X011958Y003741D01*
X011939Y003730D01*
X011919Y003724D01*
X011898Y003721D01*
X011877Y003722D01*
X011857Y003727D01*
X011837Y003735D01*
X011819Y003747D01*
X011804Y003761D01*
X011792Y003778D01*
X011783Y003798D01*
X011777Y003818D01*
X011775Y003839D01*
X011775Y004135D02*
X011777Y004156D01*
X011783Y004176D01*
X011792Y004196D01*
X011804Y004213D01*
X011819Y004227D01*
X011837Y004239D01*
X011857Y004247D01*
X011877Y004252D01*
X011898Y004253D01*
X011919Y004250D01*
X011939Y004244D01*
X011958Y004233D01*
X011975Y004220D01*
X011988Y004204D01*
X011999Y004186D01*
X012007Y004166D01*
X012011Y004146D01*
X012011Y004124D01*
X012007Y004104D01*
X011999Y004084D01*
X011988Y004066D01*
X011975Y004050D01*
X011958Y004037D01*
X011939Y004026D01*
X011919Y004020D01*
X011898Y004017D01*
X011877Y004018D01*
X011857Y004023D01*
X011837Y004031D01*
X011819Y004043D01*
X011804Y004057D01*
X011792Y004074D01*
X011783Y004094D01*
X011777Y004114D01*
X011775Y004135D01*
X011775Y004430D02*
X011777Y004451D01*
X011783Y004471D01*
X011792Y004491D01*
X011804Y004508D01*
X011819Y004522D01*
X011837Y004534D01*
X011857Y004542D01*
X011877Y004547D01*
X011898Y004548D01*
X011919Y004545D01*
X011939Y004539D01*
X011958Y004528D01*
X011975Y004515D01*
X011988Y004499D01*
X011999Y004481D01*
X012007Y004461D01*
X012011Y004441D01*
X012011Y004419D01*
X012007Y004399D01*
X011999Y004379D01*
X011988Y004361D01*
X011975Y004345D01*
X011958Y004332D01*
X011939Y004321D01*
X011919Y004315D01*
X011898Y004312D01*
X011877Y004313D01*
X011857Y004318D01*
X011837Y004326D01*
X011819Y004338D01*
X011804Y004352D01*
X011792Y004369D01*
X011783Y004389D01*
X011777Y004409D01*
X011775Y004430D01*
X009857Y010800D02*
X009859Y010836D01*
X009865Y010872D01*
X009875Y010907D01*
X009888Y010941D01*
X009905Y010973D01*
X009925Y011003D01*
X009949Y011030D01*
X009975Y011055D01*
X010004Y011077D01*
X010035Y011096D01*
X010068Y011111D01*
X010102Y011123D01*
X010138Y011131D01*
X010174Y011135D01*
X010210Y011135D01*
X010246Y011131D01*
X010282Y011123D01*
X010316Y011111D01*
X010349Y011096D01*
X010380Y011077D01*
X010409Y011055D01*
X010435Y011030D01*
X010459Y011003D01*
X010479Y010973D01*
X010496Y010941D01*
X010509Y010907D01*
X010519Y010872D01*
X010525Y010836D01*
X010527Y010800D01*
X010525Y010764D01*
X010519Y010728D01*
X010509Y010693D01*
X010496Y010659D01*
X010479Y010627D01*
X010459Y010597D01*
X010435Y010570D01*
X010409Y010545D01*
X010380Y010523D01*
X010349Y010504D01*
X010316Y010489D01*
X010282Y010477D01*
X010246Y010469D01*
X010210Y010465D01*
X010174Y010465D01*
X010138Y010469D01*
X010102Y010477D01*
X010068Y010489D01*
X010035Y010504D01*
X010004Y010523D01*
X009975Y010545D01*
X009949Y010570D01*
X009925Y010597D01*
X009905Y010627D01*
X009888Y010659D01*
X009875Y010693D01*
X009865Y010728D01*
X009859Y010764D01*
X009857Y010800D01*
X004708Y006300D02*
X004710Y006362D01*
X004716Y006425D01*
X004726Y006486D01*
X004740Y006547D01*
X004757Y006607D01*
X004778Y006666D01*
X004804Y006723D01*
X004832Y006778D01*
X004864Y006832D01*
X004900Y006883D01*
X004938Y006933D01*
X004980Y006979D01*
X005024Y007023D01*
X005072Y007064D01*
X005121Y007102D01*
X005173Y007136D01*
X005227Y007167D01*
X005283Y007195D01*
X005341Y007219D01*
X005400Y007240D01*
X005460Y007256D01*
X005521Y007269D01*
X005583Y007278D01*
X005645Y007283D01*
X005708Y007284D01*
X005770Y007281D01*
X005832Y007274D01*
X005894Y007263D01*
X005954Y007248D01*
X006014Y007230D01*
X006072Y007208D01*
X006129Y007182D01*
X006184Y007152D01*
X006237Y007119D01*
X006288Y007083D01*
X006336Y007044D01*
X006382Y007001D01*
X006425Y006956D01*
X006465Y006908D01*
X006502Y006858D01*
X006536Y006805D01*
X006567Y006751D01*
X006593Y006695D01*
X006617Y006637D01*
X006636Y006577D01*
X006652Y006517D01*
X006664Y006455D01*
X006672Y006394D01*
X006676Y006331D01*
X006676Y006269D01*
X006672Y006206D01*
X006664Y006145D01*
X006652Y006083D01*
X006636Y006023D01*
X006617Y005963D01*
X006593Y005905D01*
X006567Y005849D01*
X006536Y005795D01*
X006502Y005742D01*
X006465Y005692D01*
X006425Y005644D01*
X006382Y005599D01*
X006336Y005556D01*
X006288Y005517D01*
X006237Y005481D01*
X006184Y005448D01*
X006129Y005418D01*
X006072Y005392D01*
X006014Y005370D01*
X005954Y005352D01*
X005894Y005337D01*
X005832Y005326D01*
X005770Y005319D01*
X005708Y005316D01*
X005645Y005317D01*
X005583Y005322D01*
X005521Y005331D01*
X005460Y005344D01*
X005400Y005360D01*
X005341Y005381D01*
X005283Y005405D01*
X005227Y005433D01*
X005173Y005464D01*
X005121Y005498D01*
X005072Y005536D01*
X005024Y005577D01*
X004980Y005621D01*
X004938Y005667D01*
X004900Y005717D01*
X004864Y005768D01*
X004832Y005822D01*
X004804Y005877D01*
X004778Y005934D01*
X004757Y005993D01*
X004740Y006053D01*
X004726Y006114D01*
X004716Y006175D01*
X004710Y006238D01*
X004708Y006300D01*
X000857Y010800D02*
X000859Y010836D01*
X000865Y010872D01*
X000875Y010907D01*
X000888Y010941D01*
X000905Y010973D01*
X000925Y011003D01*
X000949Y011030D01*
X000975Y011055D01*
X001004Y011077D01*
X001035Y011096D01*
X001068Y011111D01*
X001102Y011123D01*
X001138Y011131D01*
X001174Y011135D01*
X001210Y011135D01*
X001246Y011131D01*
X001282Y011123D01*
X001316Y011111D01*
X001349Y011096D01*
X001380Y011077D01*
X001409Y011055D01*
X001435Y011030D01*
X001459Y011003D01*
X001479Y010973D01*
X001496Y010941D01*
X001509Y010907D01*
X001519Y010872D01*
X001525Y010836D01*
X001527Y010800D01*
X001525Y010764D01*
X001519Y010728D01*
X001509Y010693D01*
X001496Y010659D01*
X001479Y010627D01*
X001459Y010597D01*
X001435Y010570D01*
X001409Y010545D01*
X001380Y010523D01*
X001349Y010504D01*
X001316Y010489D01*
X001282Y010477D01*
X001246Y010469D01*
X001210Y010465D01*
X001174Y010465D01*
X001138Y010469D01*
X001102Y010477D01*
X001068Y010489D01*
X001035Y010504D01*
X001004Y010523D01*
X000975Y010545D01*
X000949Y010570D01*
X000925Y010597D01*
X000905Y010627D01*
X000888Y010659D01*
X000875Y010693D01*
X000865Y010728D01*
X000859Y010764D01*
X000857Y010800D01*
X011184Y020375D02*
X011186Y020396D01*
X011192Y020416D01*
X011201Y020436D01*
X011213Y020453D01*
X011228Y020467D01*
X011246Y020479D01*
X011266Y020487D01*
X011286Y020492D01*
X011307Y020493D01*
X011328Y020490D01*
X011348Y020484D01*
X011367Y020473D01*
X011384Y020460D01*
X011397Y020444D01*
X011408Y020426D01*
X011416Y020406D01*
X011420Y020386D01*
X011420Y020364D01*
X011416Y020344D01*
X011408Y020324D01*
X011397Y020306D01*
X011384Y020290D01*
X011367Y020277D01*
X011348Y020266D01*
X011328Y020260D01*
X011307Y020257D01*
X011286Y020258D01*
X011266Y020263D01*
X011246Y020271D01*
X011228Y020283D01*
X011213Y020297D01*
X011201Y020314D01*
X011192Y020334D01*
X011186Y020354D01*
X011184Y020375D01*
X011184Y020670D02*
X011186Y020691D01*
X011192Y020711D01*
X011201Y020731D01*
X011213Y020748D01*
X011228Y020762D01*
X011246Y020774D01*
X011266Y020782D01*
X011286Y020787D01*
X011307Y020788D01*
X011328Y020785D01*
X011348Y020779D01*
X011367Y020768D01*
X011384Y020755D01*
X011397Y020739D01*
X011408Y020721D01*
X011416Y020701D01*
X011420Y020681D01*
X011420Y020659D01*
X011416Y020639D01*
X011408Y020619D01*
X011397Y020601D01*
X011384Y020585D01*
X011367Y020572D01*
X011348Y020561D01*
X011328Y020555D01*
X011307Y020552D01*
X011286Y020553D01*
X011266Y020558D01*
X011246Y020566D01*
X011228Y020578D01*
X011213Y020592D01*
X011201Y020609D01*
X011192Y020629D01*
X011186Y020649D01*
X011184Y020670D01*
X011184Y020965D02*
X011186Y020986D01*
X011192Y021006D01*
X011201Y021026D01*
X011213Y021043D01*
X011228Y021057D01*
X011246Y021069D01*
X011266Y021077D01*
X011286Y021082D01*
X011307Y021083D01*
X011328Y021080D01*
X011348Y021074D01*
X011367Y021063D01*
X011384Y021050D01*
X011397Y021034D01*
X011408Y021016D01*
X011416Y020996D01*
X011420Y020976D01*
X011420Y020954D01*
X011416Y020934D01*
X011408Y020914D01*
X011397Y020896D01*
X011384Y020880D01*
X011367Y020867D01*
X011348Y020856D01*
X011328Y020850D01*
X011307Y020847D01*
X011286Y020848D01*
X011266Y020853D01*
X011246Y020861D01*
X011228Y020873D01*
X011213Y020887D01*
X011201Y020904D01*
X011192Y020924D01*
X011186Y020944D01*
X011184Y020965D01*
X011184Y021261D02*
X011186Y021282D01*
X011192Y021302D01*
X011201Y021322D01*
X011213Y021339D01*
X011228Y021353D01*
X011246Y021365D01*
X011266Y021373D01*
X011286Y021378D01*
X011307Y021379D01*
X011328Y021376D01*
X011348Y021370D01*
X011367Y021359D01*
X011384Y021346D01*
X011397Y021330D01*
X011408Y021312D01*
X011416Y021292D01*
X011420Y021272D01*
X011420Y021250D01*
X011416Y021230D01*
X011408Y021210D01*
X011397Y021192D01*
X011384Y021176D01*
X011367Y021163D01*
X011348Y021152D01*
X011328Y021146D01*
X011307Y021143D01*
X011286Y021144D01*
X011266Y021149D01*
X011246Y021157D01*
X011228Y021169D01*
X011213Y021183D01*
X011201Y021200D01*
X011192Y021220D01*
X011186Y021240D01*
X011184Y021261D01*
X011184Y021556D02*
X011186Y021577D01*
X011192Y021597D01*
X011201Y021617D01*
X011213Y021634D01*
X011228Y021648D01*
X011246Y021660D01*
X011266Y021668D01*
X011286Y021673D01*
X011307Y021674D01*
X011328Y021671D01*
X011348Y021665D01*
X011367Y021654D01*
X011384Y021641D01*
X011397Y021625D01*
X011408Y021607D01*
X011416Y021587D01*
X011420Y021567D01*
X011420Y021545D01*
X011416Y021525D01*
X011408Y021505D01*
X011397Y021487D01*
X011384Y021471D01*
X011367Y021458D01*
X011348Y021447D01*
X011328Y021441D01*
X011307Y021438D01*
X011286Y021439D01*
X011266Y021444D01*
X011246Y021452D01*
X011228Y021464D01*
X011213Y021478D01*
X011201Y021495D01*
X011192Y021515D01*
X011186Y021535D01*
X011184Y021556D01*
X011184Y021851D02*
X011186Y021872D01*
X011192Y021892D01*
X011201Y021912D01*
X011213Y021929D01*
X011228Y021943D01*
X011246Y021955D01*
X011266Y021963D01*
X011286Y021968D01*
X011307Y021969D01*
X011328Y021966D01*
X011348Y021960D01*
X011367Y021949D01*
X011384Y021936D01*
X011397Y021920D01*
X011408Y021902D01*
X011416Y021882D01*
X011420Y021862D01*
X011420Y021840D01*
X011416Y021820D01*
X011408Y021800D01*
X011397Y021782D01*
X011384Y021766D01*
X011367Y021753D01*
X011348Y021742D01*
X011328Y021736D01*
X011307Y021733D01*
X011286Y021734D01*
X011266Y021739D01*
X011246Y021747D01*
X011228Y021759D01*
X011213Y021773D01*
X011201Y021790D01*
X011192Y021810D01*
X011186Y021830D01*
X011184Y021851D01*
X011775Y021851D02*
X011777Y021872D01*
X011783Y021892D01*
X011792Y021912D01*
X011804Y021929D01*
X011819Y021943D01*
X011837Y021955D01*
X011857Y021963D01*
X011877Y021968D01*
X011898Y021969D01*
X011919Y021966D01*
X011939Y021960D01*
X011958Y021949D01*
X011975Y021936D01*
X011988Y021920D01*
X011999Y021902D01*
X012007Y021882D01*
X012011Y021862D01*
X012011Y021840D01*
X012007Y021820D01*
X011999Y021800D01*
X011988Y021782D01*
X011975Y021766D01*
X011958Y021753D01*
X011939Y021742D01*
X011919Y021736D01*
X011898Y021733D01*
X011877Y021734D01*
X011857Y021739D01*
X011837Y021747D01*
X011819Y021759D01*
X011804Y021773D01*
X011792Y021790D01*
X011783Y021810D01*
X011777Y021830D01*
X011775Y021851D01*
X011775Y021556D02*
X011777Y021577D01*
X011783Y021597D01*
X011792Y021617D01*
X011804Y021634D01*
X011819Y021648D01*
X011837Y021660D01*
X011857Y021668D01*
X011877Y021673D01*
X011898Y021674D01*
X011919Y021671D01*
X011939Y021665D01*
X011958Y021654D01*
X011975Y021641D01*
X011988Y021625D01*
X011999Y021607D01*
X012007Y021587D01*
X012011Y021567D01*
X012011Y021545D01*
X012007Y021525D01*
X011999Y021505D01*
X011988Y021487D01*
X011975Y021471D01*
X011958Y021458D01*
X011939Y021447D01*
X011919Y021441D01*
X011898Y021438D01*
X011877Y021439D01*
X011857Y021444D01*
X011837Y021452D01*
X011819Y021464D01*
X011804Y021478D01*
X011792Y021495D01*
X011783Y021515D01*
X011777Y021535D01*
X011775Y021556D01*
X011775Y021261D02*
X011777Y021282D01*
X011783Y021302D01*
X011792Y021322D01*
X011804Y021339D01*
X011819Y021353D01*
X011837Y021365D01*
X011857Y021373D01*
X011877Y021378D01*
X011898Y021379D01*
X011919Y021376D01*
X011939Y021370D01*
X011958Y021359D01*
X011975Y021346D01*
X011988Y021330D01*
X011999Y021312D01*
X012007Y021292D01*
X012011Y021272D01*
X012011Y021250D01*
X012007Y021230D01*
X011999Y021210D01*
X011988Y021192D01*
X011975Y021176D01*
X011958Y021163D01*
X011939Y021152D01*
X011919Y021146D01*
X011898Y021143D01*
X011877Y021144D01*
X011857Y021149D01*
X011837Y021157D01*
X011819Y021169D01*
X011804Y021183D01*
X011792Y021200D01*
X011783Y021220D01*
X011777Y021240D01*
X011775Y021261D01*
X011775Y020965D02*
X011777Y020986D01*
X011783Y021006D01*
X011792Y021026D01*
X011804Y021043D01*
X011819Y021057D01*
X011837Y021069D01*
X011857Y021077D01*
X011877Y021082D01*
X011898Y021083D01*
X011919Y021080D01*
X011939Y021074D01*
X011958Y021063D01*
X011975Y021050D01*
X011988Y021034D01*
X011999Y021016D01*
X012007Y020996D01*
X012011Y020976D01*
X012011Y020954D01*
X012007Y020934D01*
X011999Y020914D01*
X011988Y020896D01*
X011975Y020880D01*
X011958Y020867D01*
X011939Y020856D01*
X011919Y020850D01*
X011898Y020847D01*
X011877Y020848D01*
X011857Y020853D01*
X011837Y020861D01*
X011819Y020873D01*
X011804Y020887D01*
X011792Y020904D01*
X011783Y020924D01*
X011777Y020944D01*
X011775Y020965D01*
X011775Y020670D02*
X011777Y020691D01*
X011783Y020711D01*
X011792Y020731D01*
X011804Y020748D01*
X011819Y020762D01*
X011837Y020774D01*
X011857Y020782D01*
X011877Y020787D01*
X011898Y020788D01*
X011919Y020785D01*
X011939Y020779D01*
X011958Y020768D01*
X011975Y020755D01*
X011988Y020739D01*
X011999Y020721D01*
X012007Y020701D01*
X012011Y020681D01*
X012011Y020659D01*
X012007Y020639D01*
X011999Y020619D01*
X011988Y020601D01*
X011975Y020585D01*
X011958Y020572D01*
X011939Y020561D01*
X011919Y020555D01*
X011898Y020552D01*
X011877Y020553D01*
X011857Y020558D01*
X011837Y020566D01*
X011819Y020578D01*
X011804Y020592D01*
X011792Y020609D01*
X011783Y020629D01*
X011777Y020649D01*
X011775Y020670D01*
X011775Y020375D02*
X011777Y020396D01*
X011783Y020416D01*
X011792Y020436D01*
X011804Y020453D01*
X011819Y020467D01*
X011837Y020479D01*
X011857Y020487D01*
X011877Y020492D01*
X011898Y020493D01*
X011919Y020490D01*
X011939Y020484D01*
X011958Y020473D01*
X011975Y020460D01*
X011988Y020444D01*
X011999Y020426D01*
X012007Y020406D01*
X012011Y020386D01*
X012011Y020364D01*
X012007Y020344D01*
X011999Y020324D01*
X011988Y020306D01*
X011975Y020290D01*
X011958Y020277D01*
X011939Y020266D01*
X011919Y020260D01*
X011898Y020257D01*
X011877Y020258D01*
X011857Y020263D01*
X011837Y020271D01*
X011819Y020283D01*
X011804Y020297D01*
X011792Y020314D01*
X011783Y020334D01*
X011777Y020354D01*
X011775Y020375D01*
D12*
X011204Y002757D02*
X009235Y000788D01*
M02*
